<svg xmlns="http://www.w3.org/2000/svg" viewBox="0 0 39.641 39.641" xml:space="preserve"><path d="M10.732 34.285a5.358 5.358 0 0 1-5.371 5.356 5.356 5.356 0 0 1-5.357-5.356c0-2.954 2.402-5.372 5.357-5.372a5.379 5.379 0 0 1 5.371 5.372zM22.77 39.342c-1.949 0-3.484-2.75-4.548-5.888a19.204 19.204 0 0 0-4.618-7.416 19.171 19.171 0 0 0-7.369-4.622C3.1 20.341.349 18.81.349 16.867s2.722-3.552 5.939-2.757c9.462 2.337 16.925 9.814 19.255 19.292.79 3.218-.824 5.94-2.773 5.94z"/><path d="M36.513 39.342c-1.944 0-3.494-2.708-4.125-5.961C29.833 20.211 19.458 9.807 6.323 7.24 3.071 6.605.363 5.058.363 3.117.363 1.175 3.064-.423 6.336.1c17.017 2.723 30.49 16.221 33.203 33.267.52 3.273-1.081 5.975-3.026 5.975z"/></svg>