<svg version="1.0" xmlns="http://www.w3.org/2000/svg" width="682.667" height="682.667" viewBox="0 0 512 512"><path d="M232.1 1C155.5 8.5 85.9 50.1 42.8 114.5c-15.6 23.3-30.2 57.2-36.2 84-4.9 21.8-6 32.5-6 57.5s1.1 35.7 6 57.5c8.1 36.2 28.2 76.8 52.2 105.5 24 28.7 51.5 50.3 84.7 66.6 25.5 12.5 48.4 19.6 77.5 24.1 17.7 2.7 53.9 2.4 72.5-.5 28.4-4.5 51.2-11.7 76.4-24.3 50.8-25.2 90.6-65.3 115.7-116.4 12.5-25.5 19.6-48.4 24.1-77.5 2.4-16.1 2.4-53.9 0-70-4.5-29.1-11.6-52-24.1-77.5-25.1-51.1-64.9-91.2-115.7-116.4-25-12.5-48-19.8-75.4-24.1-15-2.4-47.6-3.4-62.4-2zm54.2 39.6c37.5 5.4 70.4 19 100.7 41.7 12.2 9.2 33.5 30.5 42.7 42.7 22.7 30.4 35.8 61.9 41.9 101.2 2.2 13.9 2.2 45.7 0 59.6-6.1 39.3-19.2 70.8-41.9 101.2-9.2 12.2-30.5 33.5-42.7 42.7-30.4 22.7-61.9 35.8-101.2 41.9-13.9 2.2-45.7 2.2-59.6 0-39.3-6.1-70.8-19.2-101.2-41.9-12.2-9.2-33.5-30.5-42.7-42.7-22.7-30.4-35.8-61.9-41.9-101.2-2.2-13.9-2.2-45.7 0-59.6 6.1-39.3 19.2-70.8 41.9-101.2 9.2-12.2 30.5-33.5 42.7-42.7 46.8-35 104.6-49.9 161.3-41.7z"/><path d="M239 79.6c-1.4.2-5.9.9-10 1.5-68.7 9.9-127.6 63.2-144.4 130.8-4.3 17.3-5.1 23.9-5.1 44.1 0 20.2.8 26.8 5.1 44.1 15.3 61.5 65.4 111.7 127.3 127.4 81.4 20.6 165.3-17.9 203-93.2 15-30.1 21-66.8 16.6-101-5.2-39.7-22.1-74-50.4-102.4-26.6-26.5-57.1-42.4-95.6-49.6-7.6-1.4-41.1-2.7-46.5-1.7zm30.4 35.5c6.9 2.5 15 10.1 18.6 17.4 2.2 4.3 2.5 6.3 2.5 15s-.3 10.6-2.5 14.9c-3.9 7.7-9.4 13.2-16.8 16.8-5.9 3-7.6 3.3-15.2 3.3s-9.3-.3-15.2-3.3c-7.4-3.6-12.9-9.1-16.8-16.8-2.2-4.3-2.5-6.2-2.5-14.9s.3-10.7 2.5-15c8.5-17 27.3-24.2 45.4-17.4zm-93.9 77.4c65.3 5.2 103.5 5 168.9-1 20.2-1.8 25.7-.7 27.4 5.8 2.2 8.1-3.5 12.2-19.4 13.6-5.4.6-20.2 1.5-32.9 2.1-27.5 1.3-32.4 2.1-36.4 6.1-4.7 4.7-5.6 11.2-4.2 31.1 2.7 37.9 11.3 80.4 24.1 118.3 2.7 8.2 5 16.7 5 18.8 0 3.4-.4 4-3.5 5.3-4.9 2-9.8 1.8-12.9-.7-5.6-4.4-9.6-15.7-21-59.4-8.9-34.1-9.1-34.5-14.8-34.5-4 0-5.4 2.9-8.8 18.6-6.5 29.7-16 60.6-21.2 69.4-3.7 6.2-6.5 8-12.5 8-3.3 0-4.6-.5-6.2-2.6-2.9-3.7-2.7-6.3 2.4-23.1 6.3-21.1 14.9-55.2 18.4-73.3 5.1-26.2 6.4-37.4 6.5-55.2l.1-16.7-2.9-3c-3.7-3.8-8.5-4.8-27.6-5.5-19.2-.7-53.3-4.3-57.3-6-5.4-2.2-7.2-5.2-6.8-11.2.3-4.9 5.6-7.6 13.6-6.8 2.2.2 12.1 1.1 22 1.9z"/></svg>