<svg width="44" height="43" viewBox="0 0 44 43" fill="none" xmlns="http://www.w3.org/2000/svg">
<path d="M41.9375 15.1326C42.6958 15.1326 43.3125 14.5159 43.3125 13.7576V2.75757C43.3125 1.99926 42.6958 1.38257 41.9375 1.38257H30.9375C30.1792 1.38257 29.5625 1.99926 29.5625 2.75757V11.0076H28.1875V2.75757C28.1875 1.99926 27.5708 1.38257 26.8125 1.38257H15.8125C15.0542 1.38257 14.4375 1.99926 14.4375 2.75757V11.0076H9.93713C10.1729 10.6019 10.3125 10.1344 10.3125 9.63257V6.88257H11.6875C12.4458 6.88257 13.0625 6.26588 13.0625 5.50757V4.13257C13.0625 3.37426 12.4458 2.75757 11.6875 2.75757H10.2431C9.92338 1.19076 8.53463 0.00756836 6.875 0.00756836H4.125C2.22956 0.00756836 0.6875 1.54963 0.6875 3.44507V7.24557C0.6875 9.25513 1.73594 11.0653 3.4375 12.0856V12.1089C2.56094 13.09 2.0625 14.3832 2.0625 15.7018V16.5076V37.8201C2.0625 38.3501 2.26944 38.8293 2.59875 39.1951C2.26944 39.5608 2.0625 40.04 2.0625 40.5701C2.0625 41.7072 2.98787 42.6326 4.125 42.6326H41.9375C42.6958 42.6326 43.3125 42.0159 43.3125 41.2576V33.0076C43.3125 32.2493 42.6958 31.6326 41.9375 31.6326H30.9375C30.1792 31.6326 29.5625 32.2493 29.5625 33.0076V41.2576H28.1875V33.0076C28.1875 32.2493 27.5708 31.6326 26.8125 31.6326H15.8125C15.0542 31.6326 14.4375 32.2493 14.4375 33.0076V41.2576H11.561C11.638 41.0417 11.6875 40.8121 11.6875 40.5701C11.6875 40.04 11.4806 39.5608 11.1512 39.1951C11.4812 38.8293 11.6875 38.3501 11.6875 37.8201V30.2576H41.9375C42.6958 30.2576 43.3125 29.6409 43.3125 28.8826V17.8826C43.3125 17.1243 42.6958 16.5076 41.9375 16.5076H30.9375C30.1792 16.5076 29.5625 17.1243 29.5625 17.8826V26.1326H28.1875V17.8826C28.1875 17.1243 27.5708 16.5076 26.8125 16.5076H17.1875V15.1326H41.9375ZM35.0625 33.0076H37.8125V34.3826H35.0625V33.0076ZM30.9375 33.0076H33.6875V35.7576H39.1875V33.0076H41.9375V41.2576H30.9375V33.0076ZM11.6875 13.7576C11.3678 13.7576 11.077 13.8717 10.8426 14.0559C10.4507 13.3829 9.90619 12.8095 9.25306 12.3826H41.9375V13.7576H11.6875ZM35.0625 2.75757H37.8125V4.13257H35.0625V2.75757ZM30.9375 2.75757H33.6875V5.50757H39.1875V2.75757H41.9375V11.0076H30.9375V2.75757ZM19.9375 2.75757H22.6875V4.13257H19.9375V2.75757ZM15.8125 2.75757H18.5625V5.50757H24.0625V2.75757H26.8125V11.0076H15.8125V2.75757ZM8.9375 9.63257C8.9375 10.3909 8.32081 11.0076 7.5625 11.0076H6.875V12.3826V12.9188V13.5286C6.875 13.7266 6.58075 13.8236 6.46181 13.6661L4.8125 11.4661V6.88257H8.9375V9.63257ZM11.6875 5.50757H6.38069L6.72444 4.13257H11.6875V5.50757ZM4.125 1.38257H6.875C7.77013 1.38257 8.52637 1.95938 8.811 2.75757H6.72444C6.09194 2.75757 5.54331 3.18588 5.39069 3.79982L4.96306 5.50757H2.0625V3.44507C2.0625 2.30794 2.98787 1.38257 4.125 1.38257ZM2.0625 7.24557V6.88257H3.4375V10.3936C2.57056 9.59613 2.0625 8.46726 2.0625 7.24557ZM4.35669 13.1498L5.3625 14.4904C5.66363 14.8926 6.1435 15.1326 6.64606 15.1326C7.53019 15.1326 8.25 14.4128 8.25 13.5286V13.3904C9.21731 13.9178 9.91375 14.8596 10.1001 15.9796L10.3125 17.2514V19.2576H8.9375C7.42087 19.2576 6.1875 18.0242 6.1875 16.5076H4.8125C4.8125 18.7825 6.66256 20.6326 8.9375 20.6326H12.375C12.7545 20.6326 13.0625 20.9406 13.0625 21.3201C13.0625 21.6996 12.7545 22.0076 12.375 22.0076H8.9375C5.90494 22.0076 3.4375 19.5401 3.4375 16.5076V15.7018C3.4375 14.7737 3.76956 13.8634 4.35669 13.1498ZM14.311 22.0076H14.4375V26.1326H11.6875V23.3826H12.375C13.2701 23.3826 14.0264 22.8058 14.311 22.0076ZM8.9375 23.3826H10.3125V26.1326H3.4375V20.6147C4.69219 22.2908 6.68731 23.3826 8.9375 23.3826ZM9.625 38.5076H7.5625V30.2576H6.1875V38.5076H4.125C3.7455 38.5076 3.4375 38.1996 3.4375 37.8201V30.1881C4.78225 29.9138 5.84375 28.8523 6.11806 27.5076H10.3125V37.8201C10.3125 38.1996 10.0045 38.5076 9.625 38.5076ZM3.4375 27.5076H4.686C4.47837 28.0899 4.01981 28.5484 3.4375 28.7561V27.5076ZM3.4375 40.5701C3.4375 40.1906 3.7455 39.8826 4.125 39.8826H6.1875V41.2576H4.125C3.7455 41.2576 3.4375 40.9496 3.4375 40.5701ZM19.9375 33.0076H22.6875V34.3826H19.9375V33.0076ZM15.8125 33.0076H18.5625V35.7576H24.0625V33.0076H26.8125V41.2576H15.8125V33.0076ZM7.5625 41.2576V39.8826H9.625C10.0045 39.8826 10.3125 40.1906 10.3125 40.5701C10.3125 40.9496 10.0045 41.2576 9.625 41.2576H7.5625ZM11.6875 28.8826V27.5076H41.9375V28.8826H11.6875ZM35.0625 17.8826H37.8125V19.2576H35.0625V17.8826ZM30.9375 17.8826H33.6875V20.6326H39.1875V17.8826H41.9375V26.1326H30.9375V17.8826ZM19.9375 17.8826H22.6875V19.2576H19.9375V17.8826ZM18.5625 17.8826V20.6326H24.0625V17.8826H26.8125V26.1326H15.8125V22.0076C16.5708 22.0076 17.1875 21.3909 17.1875 20.6326V17.8826H18.5625ZM15.8125 20.6326H14.311C14.0264 19.8344 13.2701 19.2576 12.375 19.2576H11.6875V15.1326H15.8125V20.6326Z" fill="white"/>
</svg>
