<svg width="30" height="30" viewBox="0 0 30 30" fill="none" xmlns="http://www.w3.org/2000/svg">
<path d="M29.4199 27.694C29.2286 27.5728 25.7599 25.4155 20.6261 24.3462C21.1486 22.0964 22.1474 16.6461 20.9761 11.6731C20.7811 10.8474 20.5673 10.0354 20.3348 9.24218C22.3861 10.4352 24.5124 10.9736 26.0086 11.2134C26.1361 11.2346 26.2624 11.2434 26.3886 11.2434C27.1361 11.2434 27.8461 10.8911 28.3024 10.2765C28.8436 9.54823 28.9324 8.59011 28.5361 7.77438C27.7536 6.16418 26.3311 3.91438 23.9999 2.3354C20.2573 -0.19671 15.6248 -0.0218234 14.9761 0.0181507C14.3323 0.00565879 9.77107 0.0144031 6.05106 2.53152C3.7748 4.07178 2.3523 6.19416 1.5598 7.70318C1.13104 8.5189 1.20104 9.49077 1.7423 10.239C2.2773 10.9798 3.16855 11.3483 4.0623 11.2022C5.16356 11.0198 6.61231 10.6763 8.11856 10.0229C8.14856 11.3108 8.36856 12.5138 8.61356 13.332C8.83107 14.0566 9.36107 14.6225 10.0698 14.886C10.3436 14.9885 10.6261 15.0384 10.9073 15.0384C11.3548 15.0384 11.7986 14.911 12.1911 14.6612C13.0611 14.1065 14.0948 13.1871 14.9973 12.0616C14.9998 12.214 15.0011 12.3639 15.0011 12.5113C15.0011 17.3132 12.7036 22.295 11.8711 23.9402C5.39356 24.7022 0.803543 27.5553 0.582293 27.6952C-0.00145894 28.0638 -0.175209 28.8358 0.193542 29.4179C0.431042 29.7939 0.837294 30 1.25104 30C1.4798 30 1.7098 29.9375 1.9173 29.8064C1.9673 29.7751 8.74982 26.2524 14.9998 26.2524C22.3349 26.2524 28.0274 29.7727 28.0836 29.8076C28.6661 30.1736 29.4386 29.9988 29.8074 29.4166C30.1749 28.8333 30.0011 28.0638 29.4174 27.6952L29.4199 27.694ZM22.5999 4.40406C24.4024 5.62452 25.5511 7.39213 26.2136 8.71377C24.7849 8.46519 22.7749 7.91304 20.9586 6.68384C19.1686 5.47212 17.8998 3.82319 17.1186 2.57774C18.6498 2.73389 20.7898 3.17861 22.5986 4.40281L22.5999 4.40406ZM3.86105 8.70128C4.5348 7.45959 5.68606 5.79566 7.45356 4.60019C9.23107 3.39721 11.3086 2.8863 12.8273 2.67143C12.0423 3.90439 10.7923 5.5021 9.04607 6.68384C7.25481 7.89555 5.27356 8.44895 3.8623 8.70128H3.86105ZM10.9698 12.4738C10.6961 11.4782 10.5111 9.92549 10.6873 8.58636C12.4586 7.32967 13.7648 5.76318 14.6573 4.44529C14.7873 5.22853 14.8423 6.11421 14.7086 7.00363C14.7036 7.02986 14.6998 7.05735 14.6961 7.08483C14.6361 7.45459 14.5436 7.82435 14.4086 8.18662C13.6961 10.1116 11.9736 11.7918 10.9686 12.4751L10.9698 12.4738ZM14.7361 23.7553C15.8473 21.3056 17.5023 16.921 17.5023 12.5101C17.5023 10.9823 17.3848 9.20221 17.2536 7.8281C17.7486 9.23094 18.1811 10.71 18.5423 12.244C19.6148 16.7985 18.6023 22.0189 18.1498 23.9414C17.1423 23.8228 16.0911 23.7528 15.0011 23.7528C14.9123 23.7528 14.8248 23.7528 14.7361 23.7553Z" fill="white"/>
</svg>
