<svg width="44" height="41" viewBox="0 0 44 41" fill="none" xmlns="http://www.w3.org/2000/svg">
<path d="M38.7577 29.0076H11.4545C10.6273 29.0076 9.95422 28.3329 9.95422 27.5037C9.95422 26.6745 10.6273 25.9998 11.4545 25.9998H19.3633C19.7194 25.9998 20.0079 25.7113 20.0079 25.3552C20.0079 24.9992 19.7194 24.7107 19.3633 24.7107H11.4545C9.91649 24.7107 8.66516 25.9636 8.66516 27.5037C8.66516 29.0437 9.91649 30.2966 11.4545 30.2966H38.7577C39.1156 30.2966 39.4198 30.5714 39.4357 30.9091C39.4442 31.0883 39.3811 31.258 39.2583 31.3867C39.1358 31.5151 38.971 31.5857 38.7942 31.5857H11.4154C10.6235 31.5857 9.85608 31.3581 9.19599 30.9275C8.89779 30.7329 8.49852 30.8169 8.30405 31.1152C8.10948 31.4133 8.19353 31.8127 8.49173 32.0071C9.36185 32.5747 10.3728 32.8748 11.4154 32.8748H11.8248C11.9985 33.9648 12.6052 34.9116 13.4624 35.5343C13.0657 36.0778 12.8476 36.7358 12.8476 37.4295C12.8476 39.2065 14.2933 40.6522 16.0703 40.6522C17.8473 40.6522 19.293 39.2065 19.293 37.4295C19.293 36.737 19.0744 36.0787 18.6776 35.5347C19.5351 34.9121 20.1421 33.965 20.3158 32.8748H29.8716C30.0453 33.965 30.6522 34.9119 31.5096 35.5345C31.1128 36.0784 30.8945 36.7365 30.8945 37.4295C30.8945 39.2065 32.3402 40.6522 34.1172 40.6522C35.8942 40.6522 37.3398 39.2065 37.3398 37.4295C37.3398 36.7364 37.1216 36.0782 36.7249 35.5344C37.5822 34.9118 38.1891 33.9649 38.3628 32.8748H38.7942C39.3191 32.8748 39.8283 32.6568 40.1911 32.2766C40.5595 31.8904 40.7485 31.3832 40.7235 30.8486C40.6747 29.8162 39.8113 29.0076 38.7577 29.0076ZM18.0039 37.4294C18.0039 38.4956 17.1364 39.363 16.0703 39.363C15.0042 39.363 14.1367 38.4956 14.1367 37.4294C14.1367 36.9405 14.3171 36.4809 14.6402 36.1275C15.0243 36.2475 15.4325 36.3123 15.8555 36.3123H16.2851C16.708 36.3123 17.1161 36.2475 17.5 36.1277C17.823 36.4813 18.0039 36.9412 18.0039 37.4294ZM16.2851 35.0232H15.8555C14.5373 35.0232 13.4302 34.105 13.1384 32.8748H19.0022C18.7104 34.105 17.6033 35.0232 16.2851 35.0232ZM36.0508 37.4294C36.0508 38.4956 35.1833 39.363 34.1172 39.363C33.051 39.363 32.1836 38.4956 32.1836 37.4294C32.1836 36.941 32.3642 36.4811 32.6874 36.1276C33.0713 36.2475 33.4794 36.3123 33.9023 36.3123H34.332C34.755 36.3123 35.1631 36.2475 35.5471 36.1276C35.8702 36.4811 36.0508 36.9409 36.0508 37.4294ZM34.332 35.0232H33.9023C32.5841 35.0232 31.4771 34.105 31.1852 32.8748H37.0491C36.7573 34.105 35.6502 35.0232 34.332 35.0232Z" fill="white"/>
<path d="M43.8738 5.2064C43.7522 5.04209 43.5599 4.94507 43.3555 4.94507C38.7253 4.94507 14.33 4.94507 10.3065 4.94507L9.43637 2.17393C9.18216 1.36414 8.44173 0.820068 7.59387 0.820068H1.93145C0.866422 0.820068 0 1.68752 0 2.75366C0 3.8198 0.866422 4.68726 1.93145 4.68726H6.17633L7.5772 9.1487C7.68376 9.48824 8.0453 9.67739 8.38518 9.57048C8.72472 9.46392 8.91361 9.10212 8.80696 8.7625L7.26438 3.84962C7.18008 3.58098 6.93103 3.39819 6.6495 3.39819H1.93145C1.5773 3.39819 1.28906 3.1091 1.28906 2.75366C1.28906 2.39822 1.5773 2.10913 1.93145 2.10913H7.59387C7.87566 2.10913 8.12195 2.29029 8.2066 2.56005L14.3522 22.1326H13.0052L9.69788 11.5997C9.59131 11.2602 9.22969 11.071 8.88989 11.1779C8.55035 11.2845 8.36146 11.6463 8.46811 11.9859L11.6542 22.1326H11.4155C8.45823 22.1326 6.05232 24.542 6.05232 27.5037C6.05232 28.1457 6.16447 28.774 6.38567 29.3713C6.48192 29.6312 6.72822 29.7921 6.99016 29.7921C7.06449 29.7921 7.14012 29.7792 7.21394 29.7518C7.5478 29.6282 7.71813 29.2573 7.59455 28.9235C7.42663 28.47 7.34147 27.9922 7.34147 27.5036C7.34147 25.2528 9.16919 23.4215 11.4156 23.4215H29.3206C29.6786 23.4215 29.9826 23.6963 29.9985 24.034C30.0071 24.2133 29.944 24.3829 29.8212 24.5117C29.6987 24.64 29.534 24.7106 29.3571 24.7106H22.3715C22.0155 24.7106 21.727 24.9991 21.727 25.3551C21.727 25.7112 22.0155 25.9997 22.3715 25.9997H29.3571C29.882 25.9997 30.3912 25.7816 30.7539 25.4015C31.1224 25.0153 31.3114 24.5081 31.2863 23.9735C31.2772 23.7804 31.2396 23.5951 31.1776 23.4215H36.8147C37.8598 23.4215 38.7679 22.7502 39.0742 21.7511L43.972 5.77858C44.0316 5.58315 43.9953 5.3708 43.8738 5.2064ZM39.3654 16.4034H35.3717L36.1931 11.9633H40.7269L39.3654 16.4034ZM34.0607 16.4034H30.0214L30.301 11.9633H34.8821L34.0607 16.4034ZM29.6606 22.1326L29.9403 17.6924H33.8223L33.0008 22.1326H29.6606ZM24.8837 22.1326L24.6002 17.6924H28.6486L28.369 22.1326H24.8837ZM20.2799 22.1326L19.4471 17.6924H23.3087L23.5922 22.1326H20.2799ZM12.5102 11.9633H17.0612L17.8939 16.4034H13.9043L12.5102 11.9633ZM18.3726 11.9633H22.9427L23.2262 16.4034H19.2053L18.3726 11.9633ZM22.577 6.23413L22.8605 10.6743H18.1308L17.2981 6.23413H22.577ZM24.152 10.6743L23.8685 6.23413H29.3702L29.0905 10.6743H24.152ZM29.0094 11.9633L28.7298 16.4034H24.5179L24.2344 11.9633H29.0094ZM30.3823 10.6743L30.6619 6.23413H35.9421L35.1206 10.6743H30.3823ZM15.9866 6.23413L16.8193 10.6743H12.1053L10.7113 6.23413H15.9866ZM14.309 17.6924H18.1356L18.9684 22.1326H15.7032L14.309 17.6924ZM37.8415 21.3732C37.7022 21.8274 37.2895 22.1326 36.8144 22.1326H34.3118L35.1332 17.6924H38.9702L37.8415 21.3732ZM41.1221 10.6743H36.4316L37.253 6.23413H42.4837L41.1221 10.6743Z" fill="white"/>
<path d="M16.0712 36.7849C15.7152 36.7849 15.4271 37.0734 15.4271 37.4294C15.4271 37.7855 15.7161 38.074 16.072 38.074C16.4281 38.074 16.7166 37.7855 16.7166 37.4294C16.7166 37.0734 16.4281 36.7849 16.072 36.7849H16.0712Z" fill="white"/>
<path d="M34.118 36.7849C33.7621 36.7849 33.4739 37.0734 33.4739 37.4294C33.4739 37.7855 33.7629 38.074 34.1189 38.074C34.4749 38.074 34.7634 37.7855 34.7634 37.4294C34.7634 37.0734 34.4749 36.7849 34.1189 36.7849H34.118Z" fill="white"/>
</svg>
