<svg width="30" height="30" viewBox="0 0 30 30" fill="none" xmlns="http://www.w3.org/2000/svg">
<path d="M23.75 2.5H9.32875C8.4625 1.00625 6.8475 0 5 0C2.2425 0 0 2.2425 0 5V23.75C0 27.1963 2.80375 30 6.25 30H23.75C27.1963 30 30 27.1963 30 23.75V8.75C30 5.30375 27.1963 2.5 23.75 2.5ZM27.285 7.5H21.25C20.56 7.5 20 6.94 20 6.25V5H23.75C25.38 5 26.7687 6.045 27.285 7.5ZM2.5 5C2.5 3.62125 3.62125 2.5 5 2.5C6.37875 2.5 7.5 3.62125 7.5 5V20C7.5 21.3787 6.37875 22.5 5 22.5C3.62125 22.5 2.5 21.3787 2.5 20V5ZM23.75 27.5H6.25C4.38875 27.5 2.84125 26.1375 2.55 24.3575C3.275 24.7663 4.11 25 5 25C7.7575 25 10 22.7575 10 20V5H17.5V6.25C17.5 8.3175 19.1825 10 21.25 10H27.5V23.75C27.5 25.8175 25.8175 27.5 23.75 27.5ZM20 13.75C20 14.44 19.44 15 18.75 15C18.06 15 17.5 14.44 17.5 13.75C17.5 13.06 18.06 12.5 18.75 12.5C19.44 12.5 20 13.06 20 13.75ZM15 13.75C15 14.44 14.44 15 13.75 15C13.06 15 12.5 14.44 12.5 13.75C12.5 13.06 13.06 12.5 13.75 12.5C14.44 12.5 15 13.06 15 13.75ZM25 13.75C25 14.44 24.44 15 23.75 15C23.06 15 22.5 14.44 22.5 13.75C22.5 13.06 23.06 12.5 23.75 12.5C24.44 12.5 25 13.06 25 13.75ZM20 18.75C20 19.44 19.44 20 18.75 20C18.06 20 17.5 19.44 17.5 18.75C17.5 18.06 18.06 17.5 18.75 17.5C19.44 17.5 20 18.06 20 18.75ZM15 18.75C15 19.44 14.44 20 13.75 20C13.06 20 12.5 19.44 12.5 18.75C12.5 18.06 13.06 17.5 13.75 17.5C14.44 17.5 15 18.06 15 18.75ZM25 18.75C25 19.44 24.44 20 23.75 20C23.06 20 22.5 19.44 22.5 18.75C22.5 18.06 23.06 17.5 23.75 17.5C24.44 17.5 25 18.06 25 18.75ZM20 23.75C20 24.44 19.44 25 18.75 25C18.06 25 17.5 24.44 17.5 23.75C17.5 23.06 18.06 22.5 18.75 22.5C19.44 22.5 20 23.06 20 23.75ZM15 23.75C15 24.44 14.44 25 13.75 25C13.06 25 12.5 24.44 12.5 23.75C12.5 23.06 13.06 22.5 13.75 22.5C14.44 22.5 15 23.06 15 23.75ZM25 23.75C25 24.44 24.44 25 23.75 25C23.06 25 22.5 24.44 22.5 23.75C22.5 23.06 23.06 22.5 23.75 22.5C24.44 22.5 25 23.06 25 23.75Z" fill="white"/>
</svg>
