<svg xmlns="http://www.w3.org/2000/svg" viewBox="0 0 24.591 24.591" width="36px" height="36px"><path d="M24.591 12.278v.947a.946.946 0 0 1-.947.947h-6.629a.946.946 0 0 1-.947-.947v-.947c0-.524.423-.947.947-.947h6.629c.524 0 .947.423.947.947zm-9.548 7.895c.05.203.058.358.026.458-.035.1-.143.153-.326.153h-3.105c-.284 0-.476-.065-.577-.191-.1-.129-.192-.33-.275-.599l-.804-2.982H4.914l-.838 3.057c-.084.272-.192.461-.326.562-.133.1-.317.153-.551.153H.421c-.184 0-.309-.038-.375-.115-.068-.076-.06-.258.025-.548L4.903 4.547c.083-.238.183-.421.3-.55.116-.126.342-.191.677-.191h3.155c.35 0 .58.07.688.205.108.136.204.323.288.561l5.032 15.601zm-5.826-6.001L7.53 7.918h-.124l-1.714 6.254h3.525z" fill="#030104"/></svg>