<svg width="26" height="26" viewBox="0 0 26 26" fill="none" xmlns="http://www.w3.org/2000/svg">
<path d="M21.6667 0H4.33333C3.18419 0.000413469 2.08223 0.457093 1.26966 1.26966C0.457093 2.08223 0.000413469 3.18419 0 4.33333V21.6667C0.000413469 22.8158 0.457093 23.9178 1.26966 24.7303C2.08223 25.5429 3.18419 25.9996 4.33333 26H21.6667C22.8158 25.9996 23.9178 25.5429 24.7303 24.7303C25.5429 23.9178 25.9996 22.8158 26 21.6667V4.33333C25.9996 3.18419 25.5429 2.08223 24.7303 1.26966C23.9178 0.457093 22.8158 0.000413469 21.6667 0ZM8.424 11.4053C8.50398 11.3231 8.59964 11.2577 8.70533 11.213C8.81102 11.1684 8.9246 11.1453 9.03933 11.1453C9.15407 11.1453 9.26764 11.1684 9.37333 11.213C9.47903 11.2577 9.57469 11.3231 9.65467 11.4053L12.1333 13.884V6.06667C12.1333 5.83681 12.2246 5.61637 12.3872 5.45384C12.5497 5.29131 12.7701 5.2 13 5.2C13.2299 5.2 13.4503 5.29131 13.6128 5.45384C13.7754 5.61637 13.8667 5.83681 13.8667 6.06667V13.884L16.3453 11.4053C16.4253 11.3231 16.521 11.2577 16.6267 11.213C16.7324 11.1684 16.8459 11.1453 16.9607 11.1453C17.0754 11.1453 17.189 11.1684 17.2947 11.213C17.4004 11.2577 17.496 11.3231 17.576 11.4053C17.7343 11.5676 17.823 11.7853 17.823 12.012C17.823 12.2387 17.7343 12.4564 17.576 12.6187L13.624 16.5707L13.6067 16.588C13.5393 16.6705 13.4487 16.7309 13.3467 16.7613C13.2948 16.7943 13.2348 16.8123 13.1733 16.8133C13.0589 16.8364 12.9411 16.8364 12.8267 16.8133C12.7652 16.8123 12.7052 16.7943 12.6533 16.7613C12.5513 16.7309 12.4607 16.6705 12.3933 16.588L12.376 16.5707L8.424 12.6187C8.26566 12.4564 8.17702 12.2387 8.17702 12.012C8.17702 11.7853 8.26566 11.5676 8.424 11.4053ZM16.9693 20.8H9.03067C8.80081 20.8 8.58037 20.7087 8.41784 20.5462C8.25531 20.3836 8.164 20.1632 8.164 19.9333C8.164 19.7035 8.25531 19.483 8.41784 19.3205C8.58037 19.158 8.80081 19.0667 9.03067 19.0667H16.9693C17.1992 19.0667 17.4196 19.158 17.5822 19.3205C17.7447 19.483 17.836 19.7035 17.836 19.9333C17.836 20.1632 17.7447 20.3836 17.5822 20.5462C17.4196 20.7087 17.1992 20.8 16.9693 20.8Z" fill="#F16E73"/>
</svg>
