<svg width="12" height="7" viewBox="0 0 12 7" fill="none" xmlns="http://www.w3.org/2000/svg">
<path d="M11.2046 2.07996C11.5988 1.71885 11.5981 1.11439 11.2048 0.753639C10.8361 0.415398 10.255 0.415546 9.88624 0.753531L6.00002 4.31589L2.11392 0.753639C2.11388 0.753603 2.11384 0.753567 2.1138 0.753531C1.7449 0.415273 1.16397 0.415846 0.795466 0.753423C0.401442 1.11438 0.40162 1.71893 0.795348 2.07985L5.3408 6.2465C5.52946 6.41943 5.76952 6.5 6.00002 6.5C6.23052 6.5 6.47058 6.41944 6.65925 6.2465L11.2046 2.07996ZM11.2046 2.07996L10.8668 1.71127L11.2047 2.07985L11.2046 2.07996Z" fill="#FEC400" stroke="#FFBA31"/>
</svg>
