<svg width="18" height="19" viewBox="0 0 18 19" fill="none" xmlns="http://www.w3.org/2000/svg">
<path d="M9.00079 0C6.61463 0.00258081 4.32694 0.951621 2.63967 2.63889C0.952406 4.32616 0.00336531 6.61384 0.000784498 9C-0.0937155 16.1798 8.37003 20.5717 14.1758 16.3627C14.2592 16.3073 14.3307 16.2356 14.386 16.152C14.4412 16.0684 14.4792 15.9746 14.4976 15.8761C14.516 15.7777 14.5145 15.6765 14.4932 15.5786C14.4719 15.4807 14.4311 15.388 14.3734 15.3061C14.3156 15.2242 14.2421 15.1547 14.157 15.1017C14.072 15.0488 13.9772 15.0133 13.8782 14.9976C13.7793 14.9819 13.6782 14.9861 13.5809 15.0101C13.4836 15.0341 13.3921 15.0773 13.3118 15.1373C8.47578 18.642 1.42578 14.9835 1.50078 9C1.91253 -0.9495 16.0905 -0.94725 16.5008 9V10.5C16.5008 10.8978 16.3428 11.2794 16.0614 11.5607C15.7801 11.842 15.3986 12 15.0008 12C14.603 12 14.2214 11.842 13.9401 11.5607C13.6588 11.2794 13.5008 10.8978 13.5008 10.5V9C13.3118 3.05325 4.68903 3.054 4.50078 9C4.50951 9.912 4.79437 10.7999 5.31782 11.5468C5.84127 12.2937 6.57874 12.8644 7.43302 13.1838C8.28731 13.5032 9.21833 13.5562 10.1034 13.3359C10.9884 13.1156 11.7859 12.6323 12.3908 11.9497C12.7161 12.524 13.2218 12.9749 13.8293 13.2326C14.4369 13.4904 15.1125 13.5406 15.7515 13.3754C16.3905 13.2103 16.9572 12.8391 17.3639 12.3192C17.7705 11.7994 17.9944 11.16 18.0008 10.5V9C17.9982 6.61384 17.0492 4.32616 15.3619 2.63889C13.6746 0.951621 11.3869 0.00258081 9.00079 0ZM9.00079 12C8.20514 12 7.44207 11.6839 6.87946 11.1213C6.31686 10.5587 6.00079 9.79565 6.00079 9C6.00079 8.20435 6.31686 7.44129 6.87946 6.87868C7.44207 6.31607 8.20514 6 9.00079 6C9.79644 6 10.5595 6.31607 11.1221 6.87868C11.6847 7.44129 12.0008 8.20435 12.0008 9C12.0008 9.79565 11.6847 10.5587 11.1221 11.1213C10.5595 11.6839 9.79644 12 9.00079 12Z" fill="#1B2E71"/>
</svg>
