<svg xmlns="http://www.w3.org/2000/svg" viewBox="0 0 63.344 63.051"><path d="M31.67 0a18.332 18.332 0 0 0-13.023 5.396c-6.452 6.45-7.263 18.028-1.908 25.465l-.004.023.087.12.001.004.041.054.008.011c.001.002-.016-.021.014.022.035.048.05.066.016.02-.026-.035-.016-.027-.03-.058l.003.005c.013.022.024.05.034.064l.005.005.006.008.008.011 13.841 19.991.901 1.301 1.268-1.828 13.496-19.49.008-.012c5.546-7.45 4.769-19.203-1.746-25.716A18.333 18.333 0 0 0 31.671 0zm0 4.844c3.64 0 7.028 1.403 9.602 3.976 4.666 4.666 5.298 14.023 1.255 19.438l-.005.008c-.14.186-.134.19-.014.02L31.671 43.939l-10.855-15.68-.01-.01c-2.015-2.691-2.896-6.376-2.66-9.98.236-3.607 1.59-7.112 3.925-9.448a13.443 13.443 0 0 1 9.6-3.976zm.157 5.718c-4.236 0-7.703 3.468-7.703 7.703s3.467 7.703 7.703 7.703c4.236 0 7.703-3.468 7.703-7.703s-3.467-7.703-7.703-7.703zm0 4.844a2.838 2.838 0 0 1 2.86 2.859 2.838 2.838 0 0 1-2.86 2.859 2.838 2.838 0 0 1-2.859-2.86 2.838 2.838 0 0 1 2.86-2.858zM17.15 42.985l-.292.035-.145.017h-.002c-2.824.332-7.366 1.53-10.761 3.143-1.697.806-3.108 1.713-4.16 2.792C.73 50.057 0 51.392 0 52.879c0 1.732 1.045 3.242 2.561 4.427 1.508 1.177 3.578 2.163 6.22 3 5.288 1.676 12.923 2.745 22.891 2.745 9.968 0 17.603-1.069 22.89-2.745 2.642-.837 4.713-1.823 6.22-3 1.517-1.185 2.562-2.695 2.562-4.427 0-1.487-.731-2.822-1.79-3.907-1.052-1.08-2.464-1.986-4.16-2.792-3.395-1.613-7.938-2.81-10.75-3.14l-.436-.053-4.554 4.783 1.638.252.025.009.072.006h.002c5.101.604 8.978 1.721 11.474 2.852 1.25.566 2.164 1.152 2.665 1.59.19.167.274.285.352.39-.16.164-.494.44-.983.724-1.06.615-2.835 1.322-5.153 1.939-4.64 1.234-11.522 2.175-20.074 2.175-8.552 0-15.434-.94-20.074-2.175-2.319-.618-4.093-1.324-5.154-1.94-.489-.283-.824-.56-.983-.724.077-.104.162-.22.353-.388.501-.44 1.416-1.025 2.664-1.59 2.502-1.135 6.39-2.255 11.508-2.857l.034-.004.024-.005 1.614-.284z"/></svg>