<svg width="40" height="41" viewBox="0 0 40 41" fill="none" xmlns="http://www.w3.org/2000/svg">
<g clip-path="url(#clip0_10_2340)">
<path d="M10.9148 7.9987C11.2045 6.26193 12.009 4.19096 14.1936 4.19096C15.4168 4.19096 16.52 4.87483 17.0742 5.97547L18.2271 5.39612C17.4529 3.85612 15.9071 2.90063 14.1936 2.90063C11.7845 2.90063 10.1684 4.63547 9.64516 7.76967C9.64065 7.79031 9.25871 9.85999 10.3561 12.5374L11.551 12.0484C10.6239 9.78709 10.9103 8.02386 10.9148 7.9987Z" fill="white"/>
<path d="M12.0355 13.064L10.9052 13.6853C11.1303 14.0949 11.3858 14.5001 11.6652 14.8891L12.7135 14.1382C12.4645 13.7898 12.2361 13.4278 12.0355 13.064Z" fill="white"/>
<path d="M26.9458 26.3156L29.5432 24.6801C32.351 22.9123 34.2387 20.1433 34.8594 16.8839C35.469 13.6768 34.7574 10.4646 32.8658 7.81362C32.8394 7.49878 32.8071 7.31942 32.8045 7.30716C32.2245 3.942 29.7594 0.320068 25.7174 0.320068C23.3974 0.320068 21.2761 1.43168 19.9555 3.28071C18.6348 1.43168 16.5129 0.320068 14.1935 0.320068C10.4865 0.320068 7.83677 2.93168 7.10645 7.30523C7.09742 7.35749 7.05871 7.59362 7.03226 7.96781C5.22129 10.5891 4.54258 13.7375 5.14064 16.8833C5.76129 20.1426 7.64968 22.9117 10.4568 24.6794L13.0542 26.3149L0 34.1485V35.3659L3.53871 40.3201H4.70258L20 30.6885L35.14 40.2214L35.2974 40.3201H36.4613L40 35.3652V34.1478L26.9458 26.3156ZM33.5916 16.6426C33.0394 19.5465 31.3568 22.013 28.8548 23.5878L25.7045 25.5717L21.46 23.0252C30.2368 19.4078 32.3626 13.6891 32.7974 10.2375C33.7271 12.2194 34.0123 14.4323 33.5916 16.6426ZM8.37613 7.53491L8.37806 7.52265C9.00452 3.76523 11.1239 1.61039 14.1935 1.61039C16.3981 1.61039 18.3852 2.83878 19.3794 4.8162L19.9561 5.96265L20.5329 4.8162C21.5258 2.83878 23.5129 1.61039 25.7174 1.61039C29.0123 1.61039 31.0419 4.67749 31.5361 7.54071C31.5548 7.63813 33.2774 17.2723 20 22.2136C6.76774 17.293 8.30258 7.93813 8.37613 7.53491ZM4.32968 39.0297H4.20323L1.29032 34.9523V34.8794L14.2781 27.0865L18.7884 29.9265L4.32968 39.0297ZM38.7097 34.9523L35.7968 39.0297H35.6703L11.1445 23.5872C8.64258 22.013 6.96065 19.5459 6.40774 16.642C5.99806 14.4885 6.25742 12.3323 7.13032 10.3891C7.25677 11.2923 7.49935 12.3375 7.94903 13.462C9.17161 16.5181 12.2071 20.7317 19.7129 23.4801L38.7097 34.8788V34.9523Z" fill="white"/>
</g>
<defs>
<clipPath id="clip0_10_2340">
<rect width="40" height="40" fill="white" transform="translate(0 0.320068)"/>
</clipPath>
</defs>
</svg>
