<svg width="32" height="26" viewBox="0 0 32 26" fill="none" xmlns="http://www.w3.org/2000/svg">
<path d="M11.9178 0.522888C17.4333 0.522888 21.8888 4.90651 21.9965 10.4399C21.9965 10.907 22.1223 11.2664 22.4457 11.6436C24.0087 13.4941 23.4158 16.3866 21.224 17.4465C20.6851 17.6981 20.4335 18.0394 20.2359 18.5784C19.0322 21.9559 16.8943 24.4352 13.2832 25.3335C10.768 25.9623 8.64806 24.9562 6.77963 23.3393C5.25255 22.0278 4.19258 20.3749 3.59971 18.4347C3.45598 17.9675 3.2404 17.6981 2.79125 17.4645C0.419787 16.2249 -0.155114 13.4402 1.53366 11.3921C1.78518 11.0867 1.85704 10.7992 1.85704 10.422C2.00077 4.74482 6.29456 0.522888 11.9178 0.522888Z" fill="white"/>
<path d="M26.3263 13.9073C26.3802 14.9493 25.9131 15.8476 25.1046 16.6022C24.8172 16.8716 24.5118 17.0154 24.1704 16.6561C23.865 16.3506 23.883 16.0452 24.1345 15.7039C25.3382 14.0331 25.3382 13.6378 24.1345 11.9311C23.883 11.5897 23.883 11.2843 24.1884 10.9789C24.5297 10.6376 24.8172 10.7992 25.1226 11.0508C25.8772 11.6616 26.3263 12.7036 26.3263 13.9073Z" fill="white"/>
<path d="M5.61186 13.027C5.73762 11.6975 5.88135 10.422 6.34845 9.21826C6.52811 8.75115 6.7437 8.28404 7.03115 7.85287C7.82164 6.72103 7.92943 6.70307 8.89958 7.67321C10.1033 8.87691 11.5405 9.36198 13.2293 9.21826C13.409 9.20029 13.5886 9.20029 13.7683 9.16436C16.3913 8.73319 18.2777 9.64944 19.2837 12.1646C19.3915 12.4341 19.5712 12.5958 19.8227 12.7216C20.5234 13.0629 20.8467 13.6198 20.703 14.4103C20.5593 15.1829 20.0203 15.6679 19.2658 15.6679C18.4753 15.6679 18.3136 16.0811 18.1699 16.7279C17.6129 19.1173 16.3553 21.0576 14.2174 22.3691C12.6903 23.3033 11.1633 23.3033 9.65414 22.3691C7.46233 21.0217 6.1688 19.0455 5.70169 16.5482C5.57593 15.8835 5.34238 15.6859 4.69561 15.614C3.45598 15.4703 2.97091 14.59 3.43802 13.4941C3.77936 12.7395 4.2824 12.5419 5.09086 12.8653C5.25255 12.9192 5.41424 12.9731 5.61186 13.027Z" fill="#48B9EA"/>
<path d="M12.0076 20.5007C10.6602 20.5187 9.6182 20.0156 8.73788 19.1353C8.3606 18.7401 8.10908 18.2909 8.59416 17.8058C9.02533 17.3747 9.43854 17.6082 9.85175 17.9316C11.4687 19.2431 12.5825 19.2431 14.1994 17.8777C14.5947 17.5364 14.9899 17.4106 15.3672 17.8058C15.7265 18.1831 15.6726 18.6323 15.3313 19.0095C14.415 20.0156 13.2832 20.5366 12.0076 20.5007Z" fill="white"/>
<path d="M8.84571 11.8233C9.86976 11.8413 10.7141 12.7036 10.6962 13.7456C10.6782 14.7697 9.79789 15.632 8.79182 15.632C7.74981 15.632 6.86949 14.7158 6.90542 13.6558C6.92339 12.6138 7.8037 11.8053 8.84571 11.8233Z" fill="white"/>
<path d="M16.9842 13.6737C17.0021 14.6978 16.1757 15.5781 15.1517 15.614C14.1097 15.65 13.1934 14.7696 13.1934 13.7097C13.1934 12.6856 14.0378 11.8412 15.0798 11.8233C16.1039 11.8053 16.9662 12.6497 16.9842 13.6737Z" fill="white"/>
<path d="M29.1629 13.8337C29.1629 12.0551 28.4084 10.3484 27.0789 9.16265C26.8094 8.9291 26.4142 8.94707 26.1627 9.21655C26.0549 9.34231 26.001 9.48604 26.001 9.64773C26.001 9.82738 26.0728 10.007 26.2166 10.1328C27.2765 11.085 27.8694 12.4324 27.8694 13.8337C27.8694 15.253 27.2586 16.6004 26.2166 17.5347C25.9471 17.7682 25.9291 18.1814 26.1627 18.4509C26.3962 18.7204 26.8094 18.7384 27.0789 18.5048C28.4084 17.3191 29.1629 15.6123 29.1629 13.8337Z" fill="white"/>
<path d="M28.7876 20.0156C30.4584 18.3628 31.3926 16.171 31.3926 13.8175C31.3926 11.464 30.4763 9.27217 28.7876 7.61933C28.536 7.36781 28.1228 7.36781 27.8713 7.61933C27.7455 7.74509 27.6917 7.90678 27.6917 8.06848C27.6917 8.23017 27.7635 8.40982 27.8893 8.53558C29.3265 9.9369 30.099 11.8053 30.099 13.8175C30.099 15.8117 29.3086 17.6981 27.8893 19.0994C27.6378 19.3509 27.6378 19.7641 27.8893 20.0156C28.1408 20.2672 28.536 20.2672 28.7876 20.0156Z" fill="white"/>
</svg>
