<svg width="26" height="26" viewBox="0 0 26 26" fill="none" xmlns="http://www.w3.org/2000/svg">
<path d="M25.437 13.0229C25.437 6.11859 19.8412 0.522888 12.937 0.522888C6.03265 0.522888 0.436951 6.11859 0.436951 13.0229C0.436951 19.9272 6.03265 25.5229 12.937 25.5229C13.0102 25.5229 13.0834 25.5229 13.1567 25.518V15.7914H10.4711V12.6616H13.1567V10.3569C13.1567 7.68597 14.7875 6.2309 17.1703 6.2309C18.3129 6.2309 19.2944 6.3139 19.5776 6.35297V9.14594H17.937C16.643 9.14594 16.3891 9.76117 16.3891 10.6645V12.6567H19.4897L19.0844 15.7866H16.3891V25.0395C21.6137 23.5405 25.437 18.7309 25.437 13.0229Z" fill="white"/>
</svg>
