<svg width="30" height="29" viewBox="0 0 30 29" fill="none" xmlns="http://www.w3.org/2000/svg">
<path d="M28.75 26.5832H27.5V16.9158C27.498 15.3139 26.8389 13.7782 25.6672 12.6455C24.4956 11.5128 22.907 10.8756 21.25 10.8736H16.25V7.2955C16.8068 7.06055 17.2808 6.67378 17.6138 6.18251C17.9468 5.69124 18.1244 5.11677 18.125 4.52941C17.7873 2.98478 17.0267 1.55619 15.9225 0.392979C15.8054 0.269151 15.6629 0.170259 15.504 0.1026C15.3452 0.0349419 15.1736 0 15 0C14.8264 0 14.6548 0.0349419 14.496 0.1026C14.3371 0.170259 14.1946 0.269151 14.0775 0.392979C12.9733 1.55619 12.2127 2.98478 11.875 4.52941C11.8756 5.11677 12.0532 5.69124 12.3862 6.18251C12.7192 6.67378 13.1932 7.06055 13.75 7.2955V10.8736H8.75C7.09301 10.8756 5.50445 11.5128 4.33278 12.6455C3.1611 13.7782 2.50198 15.3139 2.5 16.9158V26.5832H1.25C0.918479 26.5832 0.600537 26.7105 0.366117 26.9371C0.131696 27.1637 0 27.4711 0 27.7916C0 28.1121 0.131696 28.4194 0.366117 28.6461C0.600537 28.8727 0.918479 29 1.25 29H28.75C29.0815 29 29.3995 28.8727 29.6339 28.6461C29.8683 28.4194 30 28.1121 30 27.7916C30 27.4711 29.8683 27.1637 29.6339 26.9371C29.3995 26.7105 29.0815 26.5832 28.75 26.5832ZM8.75 13.2905H21.25C22.2446 13.2905 23.1984 13.6724 23.9017 14.3523C24.6049 15.0322 25 15.9543 25 16.9158V19.3084C23.83 19.1876 23.125 18.4625 23.125 18.1242C23.125 17.8037 22.9933 17.4963 22.7589 17.2697C22.5245 17.0431 22.2065 16.9158 21.875 16.9158C21.5435 16.9158 21.2255 17.0431 20.9911 17.2697C20.7567 17.4963 20.625 17.8037 20.625 18.1242C20.625 18.5387 19.7725 19.3326 18.4375 19.3326C17.0763 19.3326 16.25 18.494 16.25 18.1242C16.25 17.8037 16.1183 17.4963 15.8839 17.2697C15.6495 17.0431 15.3315 16.9158 15 16.9158C14.6685 16.9158 14.3505 17.0431 14.1161 17.2697C13.8817 17.4963 13.75 17.8037 13.75 18.1242C13.75 18.5387 12.8975 19.3326 11.5625 19.3326C10.2013 19.3326 9.375 18.494 9.375 18.1242C9.375 17.8037 9.2433 17.4963 9.00888 17.2697C8.77446 17.0431 8.45652 16.9158 8.125 16.9158C7.79348 16.9158 7.47554 17.0431 7.24112 17.2697C7.0067 17.4963 6.875 17.8037 6.875 18.1242C6.875 18.5048 6.15125 19.1973 5 19.3096V16.9158C5 15.9543 5.39509 15.0322 6.09835 14.3523C6.80161 13.6724 7.75544 13.2905 8.75 13.2905ZM5 21.7241C6.14837 21.6748 7.24741 21.2588 8.125 20.541C9.0892 21.318 10.3039 21.7451 11.5591 21.7484C12.8144 21.7517 14.0314 21.3311 15 20.5592C15.9686 21.3311 17.1856 21.7517 18.4409 21.7484C19.6961 21.7451 20.9108 21.318 21.875 20.541C22.7528 21.2583 23.8518 21.674 25 21.7229V26.5832H5V21.7241Z" fill="white"/>
</svg>
