<svg width="29" height="30" viewBox="0 0 29 30" fill="none" xmlns="http://www.w3.org/2000/svg">
<path d="M7.465 27.8563C7.19177 27.8562 6.92609 27.7666 6.70862 27.6012C6.49116 27.4358 6.33388 27.2037 6.26086 26.9404C6.18784 26.6771 6.2031 26.3971 6.30431 26.1433C6.40551 25.8895 6.58709 25.6759 6.82125 25.5351C11.25 22.8751 11.25 17.1626 11.25 13.7501C11.25 12.7555 11.6451 11.8017 12.3483 11.0984C13.0516 10.3952 14.0054 10.0001 15 10.0001C15.9946 10.0001 16.9484 10.3952 17.6517 11.0984C18.3549 11.8017 18.75 12.7555 18.75 13.7501C18.75 14.0816 18.6183 14.3995 18.3839 14.6339C18.1495 14.8684 17.8315 15.0001 17.5 15.0001C17.1685 15.0001 16.8505 14.8684 16.6161 14.6339C16.3817 14.3995 16.25 14.0816 16.25 13.7501C16.25 13.4185 16.1183 13.1006 15.8839 12.8662C15.6495 12.6318 15.3315 12.5001 15 12.5001C14.6685 12.5001 14.3505 12.6318 14.1161 12.8662C13.8817 13.1006 13.75 13.4185 13.75 13.7501C13.75 17.4338 13.75 24.2926 8.1075 27.6788C7.91335 27.795 7.69129 27.8564 7.465 27.8563ZM13.6688 29.6326C16.5212 26.7576 18.1875 22.7151 18.62 17.6063C18.6346 17.4424 18.6167 17.2773 18.5673 17.1203C18.5179 16.9634 18.438 16.8178 18.3322 16.6917C18.2264 16.5657 18.0968 16.4619 17.9508 16.3861C17.8047 16.3103 17.6452 16.2641 17.4812 16.2501C17.3172 16.2332 17.1515 16.2496 16.9939 16.2982C16.8363 16.3468 16.6902 16.4266 16.5641 16.5328C16.438 16.6391 16.3346 16.7696 16.26 16.9167C16.1854 17.0637 16.1412 17.2243 16.13 17.3888C15.7413 21.9601 14.3562 25.3888 11.895 27.8651C11.6613 28.1003 11.5306 28.4187 11.5316 28.7503C11.5327 29.0819 11.6654 29.3995 11.9006 29.6332C12.1358 29.8669 12.4543 29.9976 12.7859 29.9966C13.1174 29.9955 13.435 29.8628 13.6688 29.6276V29.6326ZM20.1688 29.4001C20.927 28.1402 21.5584 26.8083 22.0537 25.4238C22.1573 25.1142 22.1356 24.7763 21.9933 24.4825C21.8509 24.1886 21.5993 23.9621 21.2922 23.8514C20.985 23.7407 20.6467 23.7546 20.3497 23.89C20.0526 24.0255 19.8203 24.2718 19.7025 24.5763C19.2624 25.8039 18.7022 26.985 18.03 28.1026C17.9448 28.243 17.8881 28.3988 17.8631 28.5612C17.8382 28.7235 17.8454 28.8892 17.8845 29.0487C17.9235 29.2083 17.9936 29.3586 18.0908 29.491C18.1879 29.6235 18.3102 29.7355 18.4506 29.8207C18.7342 29.9928 19.0746 30.0451 19.3968 29.9662C19.5563 29.9272 19.7066 29.8571 19.8391 29.7599C19.9715 29.6628 20.0836 29.5405 20.1688 29.4001ZM23.125 21.4888C23.5881 18.9362 23.7975 16.3439 23.75 13.7501C23.7488 11.9792 23.2103 10.2503 22.2057 8.79201C21.2011 7.33368 19.7776 6.2145 18.1234 5.58237C16.4692 4.95023 14.6621 4.83491 12.9409 5.25164C11.2198 5.66836 9.6656 6.59752 8.48375 7.91631C8.36865 8.03757 8.27904 8.18068 8.22023 8.33718C8.16142 8.49368 8.1346 8.66038 8.14136 8.82743C8.14812 8.99448 8.18831 9.15847 8.25958 9.30971C8.33084 9.46095 8.43172 9.59635 8.55624 9.70791C8.68076 9.81947 8.82639 9.90491 8.98452 9.95919C9.14265 10.0135 9.31006 10.0355 9.47684 10.0239C9.64363 10.0123 9.8064 9.96742 9.95552 9.89183C10.1046 9.81624 10.2371 9.7115 10.345 9.58381C11.1891 8.64166 12.2992 7.97782 13.5286 7.68002C14.7581 7.38222 16.0489 7.46449 17.2306 7.91595C18.4122 8.3674 19.4291 9.1668 20.1468 10.2085C20.8644 11.2502 21.2491 12.4851 21.25 13.7501C21.2961 16.1836 21.1027 18.6157 20.6725 21.0113C20.6094 21.3365 20.6779 21.6735 20.8631 21.9482C21.0482 22.2229 21.3349 22.4128 21.66 22.4763C21.7394 22.4922 21.8202 22.5002 21.9012 22.5001C22.1908 22.4993 22.4711 22.3981 22.6943 22.2136C22.9175 22.0292 23.0697 21.773 23.125 21.4888ZM8.75 13.7501C8.74964 13.4012 8.77849 13.0529 8.83625 12.7088C8.87357 12.5432 8.87676 12.3717 8.84562 12.2048C8.81448 12.0378 8.74965 11.879 8.65511 11.738C8.56056 11.597 8.43828 11.4767 8.29571 11.3845C8.15314 11.2922 7.99328 11.23 7.82588 11.2016C7.65847 11.1732 7.48704 11.1792 7.32204 11.2193C7.15704 11.2593 7.00192 11.3326 6.86616 11.4345C6.73039 11.5365 6.61682 11.6651 6.53238 11.8124C6.44793 11.9597 6.39439 12.1226 6.375 12.2913C6.29248 12.7732 6.25067 13.2612 6.25 13.7501C6.25 19.5563 4.5675 22.5001 1.25 22.5001C0.918479 22.5001 0.600537 22.6318 0.366117 22.8662C0.131696 23.1006 0 23.4185 0 23.7501C0 24.0816 0.131696 24.3995 0.366117 24.6339C0.600537 24.8684 0.918479 25.0001 1.25 25.0001C6.08625 25.0001 8.75 21.0001 8.75 13.7501ZM25.875 29.2676C27.9321 24.3602 28.9125 19.0687 28.75 13.7501C28.7558 11.6737 28.2854 9.62369 27.375 7.75756C27.3032 7.60983 27.203 7.47768 27.0801 7.36867C26.9572 7.25967 26.814 7.17593 26.6588 7.12224C26.5035 7.06856 26.3392 7.04598 26.1753 7.05579C26.0113 7.06561 25.8509 7.10762 25.7031 7.17944C25.5554 7.25126 25.4232 7.35147 25.3142 7.47435C25.2052 7.59724 25.1215 7.74039 25.0678 7.89564C25.0141 8.05089 24.9915 8.21519 25.0014 8.37917C25.0112 8.54314 25.0532 8.70358 25.125 8.85131C25.8688 10.377 26.2536 12.0527 26.25 13.7501C26.4074 18.711 25.5043 23.6484 23.6012 28.2326C23.5335 28.3823 23.4959 28.5438 23.4907 28.7081C23.4854 28.8723 23.5126 29.0359 23.5706 29.1896C23.6287 29.3434 23.7165 29.4841 23.829 29.6039C23.9415 29.7236 24.0765 29.82 24.2262 29.8876C24.3882 29.962 24.5643 30.0004 24.7425 30.0001C24.9816 29.999 25.2153 29.9295 25.416 29.7997C25.6167 29.6698 25.776 29.4852 25.875 29.2676ZM3.75 17.5001V13.7501C3.75331 10.7674 4.93964 7.90783 7.0487 5.79877C9.15777 3.6897 12.0173 2.50337 15 2.50006C17.4355 2.49195 19.8065 3.28229 21.75 4.75006C22.0152 4.94898 22.3486 5.03438 22.6768 4.9875C23.005 4.94062 23.3011 4.76528 23.5 4.50006C23.6989 4.23485 23.7843 3.90148 23.7374 3.57329C23.6906 3.2451 23.5152 2.94898 23.25 2.75006C20.8742 0.956841 17.9766 -0.0090435 15 6.38181e-05C11.3546 0.00436441 7.85973 1.4544 5.28203 4.0321C2.70434 6.60979 1.2543 10.1047 1.25 13.7501V17.5001C1.25 17.8316 1.3817 18.1495 1.61612 18.3839C1.85054 18.6184 2.16848 18.7501 2.5 18.7501C2.83152 18.7501 3.14946 18.6184 3.38388 18.3839C3.6183 18.1495 3.75 17.8316 3.75 17.5001Z" fill="white"/>
</svg>
