<svg width="44" height="45" viewBox="0 0 44 45" fill="none" xmlns="http://www.w3.org/2000/svg">
<g clip-path="url(#clip0_10_2251)">
<path d="M43.3736 11.8741C43.3735 11.8741 43.3735 11.8741 43.3734 11.8741L43.3719 11.8727L40.5319 11.4675C40.1327 11.4106 39.8552 11.0409 39.912 10.6417C39.9393 10.4499 40.0418 10.2769 40.1968 10.1606L42.4922 8.43902C42.8148 8.19709 42.8801 7.7395 42.6382 7.41689L40.0099 3.91244C39.7679 3.58983 39.3103 3.52449 38.9877 3.76643L36.693 5.48799C36.3718 5.73175 35.9139 5.66896 35.6701 5.34772C35.5517 5.19175 35.501 4.99472 35.5293 4.80097L35.9352 1.9609C35.9924 1.56173 35.7153 1.19184 35.3162 1.13453C35.3159 1.13453 35.3156 1.13444 35.3154 1.13444L30.9815 0.515319C30.5824 0.458007 30.2124 0.735077 30.1551 1.13426C30.1551 1.13435 30.1551 1.13435 30.1551 1.13444L29.7491 3.9745C29.6923 4.37368 29.3226 4.65121 28.9234 4.59435C28.7316 4.56706 28.5585 4.46458 28.4423 4.30962L26.7214 2.0142C26.4795 1.69159 26.0219 1.62625 25.6993 1.86818L23.5054 3.51454C22.5128 3.40904 21.5118 3.40904 20.5193 3.51454C14.0191 4.2575 8.92165 9.44135 8.28802 15.9531C8.26831 16.1598 8.26101 16.3649 8.25079 16.5701H8.03176C7.68533 16.5707 7.387 16.8147 7.31773 17.1542L6.81323 19.5532L4.79234 18.1595C4.50231 17.9594 4.11061 17.995 3.86147 18.2442L1.67119 20.4345C1.42241 20.6835 1.38681 21.0747 1.5865 21.3646L2.97367 23.3818L0.573855 23.8863C0.238195 23.9599 -0.000728425 24.2575 1.66866e-06 24.6011V27.5215C-0.000180855 27.8668 0.241754 28.1651 0.579696 28.2362L2.97951 28.7407L1.59234 30.758C1.39266 31.0479 1.42825 31.4391 1.67703 31.6881L3.86731 33.8784C4.11645 34.1275 4.50815 34.1632 4.79818 33.9631L6.81542 32.5723L7.31992 34.9721C7.38919 35.3115 7.68752 35.5555 8.03395 35.5562H10.9543C11.2997 35.5563 11.5979 35.3144 11.6691 34.9765L12.1736 32.5766L14.1908 33.9638C14.4808 34.1635 14.8719 34.1279 15.121 33.8791L16.2548 32.7416V34.8224C16.2581 35.8611 16.8145 36.8192 17.715 37.3369V41.3933C17.715 43.0061 19.0225 44.3136 20.6354 44.3136H23.5557C25.1686 44.3136 26.4761 43.0061 26.4761 41.3933V37.3369C27.3766 36.8192 27.933 35.8611 27.9363 34.8224V31.9327C27.9561 30.7168 28.5922 29.5943 29.625 28.9525C30.2309 28.5594 30.8055 28.12 31.3436 27.6383L30.3697 26.5505C29.8883 26.9819 29.3739 27.3752 28.8314 27.7266C27.3817 28.6365 26.4943 30.2212 26.4761 31.9327V34.8224C26.4761 35.6289 25.8224 36.2826 25.0159 36.2826H19.1752C18.3687 36.2826 17.715 35.6289 17.715 34.8224V31.8721C17.6981 30.193 16.8246 28.6389 15.3991 27.7515C9.6125 24.1154 7.86904 16.4769 11.5051 10.6903C13.7611 7.09994 17.6983 4.91468 21.9386 4.89953C21.9277 4.92554 21.9181 4.9521 21.9101 4.97911C21.883 5.17076 21.9332 5.36542 22.0496 5.52011L23.7704 7.81479C23.9518 8.04961 23.9692 8.37213 23.8142 8.6252C23.6649 8.87982 23.3762 9.01872 23.0841 8.97637L20.244 8.57044C19.8449 8.51322 19.475 8.79038 19.4177 9.18947C19.4177 9.18974 19.4176 9.19002 19.4176 9.19029L18.7977 13.5263C18.7405 13.9254 19.0177 14.2954 19.4167 14.3527C19.417 14.3527 19.4173 14.3528 19.4176 14.3528L22.2576 14.7587C22.6568 14.8156 22.9343 15.1853 22.8775 15.5844C22.8502 15.7763 22.7477 15.9493 22.5927 16.0656L20.2981 17.7864C19.9755 18.0283 19.9101 18.4859 20.152 18.8085L22.7804 22.313C23.0223 22.6356 23.4799 22.7009 23.8025 22.459L26.0979 20.7382C26.4208 20.4967 26.8784 20.5627 27.1199 20.8857C27.2354 21.0402 27.2851 21.2342 27.258 21.4252L26.8528 24.2653C26.7955 24.6644 27.0726 25.0344 27.4718 25.0917C27.4719 25.0917 27.4719 25.0917 27.472 25.0917L31.8087 25.7116C31.8428 25.716 31.8773 25.7182 31.9117 25.7182C32.2752 25.7186 32.5835 25.4516 32.6352 25.0917L33.0404 22.2517C33.0972 21.8525 33.4669 21.575 33.8661 21.6318C34.058 21.6591 34.231 21.7616 34.3473 21.9166L36.0688 24.2112C36.3107 24.5338 36.7683 24.5992 37.0909 24.3573L40.5954 21.7289C40.918 21.487 40.9833 21.0294 40.7414 20.7068L39.0206 18.4121C38.84 18.1769 38.8225 17.8549 38.9768 17.6017C39.1229 17.3437 39.4142 17.2039 39.7069 17.2513L42.5469 17.6565C42.946 17.7138 43.3161 17.4366 43.3734 17.0375C43.3734 17.0374 43.3734 17.0374 43.3734 17.0373L43.9925 12.7006C44.0498 12.3014 43.7728 11.9314 43.3736 11.8741ZM19.1752 37.7428H25.0159V39.203H19.1752V37.7428ZM19.1752 40.6632H25.0159V41.3933C25.0159 42.1997 24.3622 42.8534 23.5557 42.8534H20.6354C19.8289 42.8534 19.1752 42.1997 19.1752 41.3933V40.6632ZM13.3629 28.0727C13.7615 28.3987 14.1781 28.7022 14.6106 28.9817C15.3005 29.4176 15.8198 30.0772 16.0818 30.85L14.5157 32.4131L12.9993 31.3676C12.3353 30.91 11.4261 31.0774 10.9684 31.7414C10.8587 31.9007 10.7817 32.0801 10.7419 32.2693L10.3593 34.0923H8.62387L8.2413 32.2722C8.0752 31.4831 7.30085 30.9779 6.51171 31.144C6.32252 31.1838 6.1431 31.2608 5.98385 31.3705L4.46671 32.4131L3.13648 31.0858L4.18125 29.5701C4.63929 28.9064 4.47246 27.997 3.80872 27.539C3.64937 27.429 3.46977 27.3518 3.28031 27.3119L1.46019 26.9286V25.1939L3.28031 24.8106C4.06918 24.6434 4.57313 23.8683 4.40584 23.0793C4.36614 22.8921 4.29012 22.7146 4.18198 22.5568L3.13648 21.0368L4.46671 19.7095L5.98458 20.755C6.64887 21.2121 7.55811 21.0442 8.01524 20.3799C8.12476 20.2208 8.2016 20.0416 8.2413 19.8526L8.36906 19.2451C8.48606 20.0864 8.67981 20.915 8.94803 21.7209C6.54575 22.0073 4.83048 24.187 5.11686 26.5892C5.40324 28.9915 7.58294 30.7068 9.98522 30.4204C11.4313 30.2479 12.6972 29.3681 13.3629 28.0727ZM12.2291 27.044C11.6839 28.5594 10.0135 29.3459 8.49811 28.8008C6.98271 28.2556 6.19621 26.5852 6.74132 25.0698C7.15839 23.9105 8.25909 23.1384 9.49113 23.1409C9.50062 23.1409 9.50938 23.1409 9.51887 23.1409C10.1903 24.5886 11.1072 25.9091 12.2291 27.044ZM42.0271 16.1057L39.9098 15.8035C38.7123 15.6325 37.6029 16.4647 37.4319 17.6621C37.3498 18.2372 37.4994 18.8213 37.8481 19.286L39.1308 20.9966L36.7945 22.7489L35.511 21.039C34.7853 20.0711 33.4125 19.8748 32.4447 20.6006C31.98 20.949 31.6727 21.4678 31.5904 22.0429L31.2947 24.163L28.4043 23.7498L28.7066 21.6325C28.878 20.4351 28.0463 19.3254 26.8488 19.154C26.2734 19.0716 25.689 19.2212 25.224 19.57L23.5134 20.8528L21.7612 18.5165L23.471 17.233C24.4389 16.5073 24.6352 15.1344 23.9095 14.1667C23.561 13.702 23.0422 13.3947 22.4672 13.3124L20.3499 13.0101L20.7631 10.1197L22.8804 10.422C24.0778 10.5934 25.1876 9.76168 25.359 8.56423C25.4414 7.98883 25.2917 7.40439 24.9429 6.93941L23.6558 5.22734L25.9921 3.47512L27.2756 5.18573C28.0013 6.15356 29.3741 6.34986 30.3419 5.62415C30.8066 5.27571 31.1139 4.75689 31.1962 4.18185L31.4984 2.06458L34.3889 2.47708L34.0866 4.59435C33.9156 5.79189 34.7477 6.90126 35.9452 7.07229C36.5203 7.15442 37.1045 7.00476 37.5692 6.65614L39.2798 5.37336L41.032 7.70966L39.3214 8.99317C38.3535 9.71888 38.1572 11.0917 38.883 12.0595C39.2314 12.5242 39.7502 12.8314 40.3253 12.9138L42.4425 13.216L42.0271 16.1057Z" fill="white"/>
<path d="M31.394 7.27148C28.1683 7.27148 25.5533 9.8865 25.5533 13.1122C25.5533 16.338 28.1683 18.953 31.394 18.953C34.6198 18.953 37.2348 16.338 37.2348 13.1122C37.2311 9.88796 34.6183 7.27504 31.394 7.27148ZM31.394 17.4928C28.9747 17.4928 27.0135 15.5316 27.0135 13.1122C27.0135 10.6929 28.9747 8.73167 31.394 8.73167C33.8134 8.73167 35.7746 10.6929 35.7746 13.1122C35.7718 15.5304 33.8122 17.49 31.394 17.4928Z" fill="white"/>
<path d="M22.8256 32.6321H21.3654V34.8224H22.8256V32.6321Z" fill="white"/>
<path d="M18.9021 25.4618C14.3952 23.7011 12.1688 18.6202 13.9295 14.1133C14.6118 12.3669 15.8363 10.8855 17.423 9.88669L16.6425 8.65137C11.8662 11.6604 10.4335 17.9716 13.4425 22.7478C14.6078 24.5976 16.3356 26.025 18.3721 26.8205C20.1747 27.5111 21.365 29.2415 21.3655 31.1718H22.8256C22.8279 28.6391 21.2672 26.3677 18.9021 25.4618Z" fill="white"/>
<path d="M41.078 27.5215H35.9673V28.9817H41.078V27.5215Z" fill="white"/>
<path d="M35.7047 31.3405L34.77 32.4624L39.1509 36.1123L40.0856 34.9904L35.7047 31.3405Z" fill="white"/>
<path d="M33.0469 33.3623H31.5868V38.473H33.0469V33.3623Z" fill="white"/>
<path d="M6.58586 11.4807L0.745514 12.9407L1.09943 14.3565L6.93978 12.8966L6.58586 11.4807Z" fill="white"/>
<path d="M2.80655 4.29535L1.95831 5.48291L7.06856 9.133L7.9168 7.94544L2.80655 4.29535Z" fill="white"/>
<path d="M9.62847 0.326056L8.21384 0.687744L9.70707 6.52804L11.1217 6.16635L9.62847 0.326056Z" fill="white"/>
</g>
<defs>
<clipPath id="clip0_10_2251">
<rect width="44" height="44" fill="white" transform="translate(0 0.320068)"/>
</clipPath>
</defs>
</svg>
