<svg xmlns="http://www.w3.org/2000/svg" width="56px" height="56px" viewBox="0 0 257.982 257.841"><path d="M128.78 0c-17.49 0-34.11 3.448-50.073 10.297-31.71 13.6-54.925 36.649-68.55 68.41C3.328 94.619 0 111.29 0 128.779c0 17.493 3.329 34.301 10.156 50.217 13.626 31.761 36.844 54.947 68.551 68.55 15.967 6.85 32.583 10.294 50.072 10.294 17.49 0 34.234-3.48 50.213-10.293 31.975-13.638 55.09-36.844 68.694-68.55 6.848-15.968 10.296-32.725 10.296-50.218 0-17.489-3.445-34.106-10.296-50.072-13.602-31.71-36.715-54.773-68.69-68.41C163.015 3.48 146.271 0 128.78 0zm0 15.516c20.452 0 39.475 5.108 56.841 15.234 17.471 10.186 31.313 23.978 41.469 41.328 10.156 17.348 15.232 36.249 15.232 56.701 0 20.454-5.042 39.512-15.228 56.987-10.126 17.365-23.998 31.142-41.469 41.328-17.365 10.126-36.394 15.232-56.844 15.232-15.373 0-30.042-2.96-44.008-9.027-13.965-6.064-26.022-14.036-36.109-24.12-10.087-10.086-18.116-22.26-24.12-36.25-5.985-13.938-8.884-28.773-8.884-44.15 0-20.453 5.025-39.384 15.094-56.7 10.105-17.381 23.98-31.173 41.328-41.329 17.345-10.156 36.248-15.234 56.697-15.234zm0 31.172c-4.09 0-7.759 3.526-7.759 7.898v74.193c0 .142.284.708.284 1.13-.283 2.539.424 4.653 2.115 6.347l42.176 42.174c2.822 2.822 8.04 2.822 10.861 0 3.243-3.244 3.03-7.95 0-11.002l-39.496-39.778V54.586c0-4.372-3.81-7.898-8.182-7.898z"/></svg>