<svg width="25" height="26" viewBox="0 0 25 26" fill="none" xmlns="http://www.w3.org/2000/svg">
<path d="M12.5 15.6744C13.9644 15.6744 15.1515 14.4873 15.1515 13.0229C15.1515 11.5585 13.9644 10.3714 12.5 10.3714C11.0356 10.3714 9.84848 11.5585 9.84848 13.0229C9.84848 14.4873 11.0356 15.6744 12.5 15.6744Z" fill="white"/>
<path d="M12.5 0.522888C5.59645 0.522888 0 6.11934 0 13.0229C0 19.9264 5.59645 25.5229 12.5 25.5229C19.4035 25.5229 25 19.9264 25 13.0229C25 6.11934 19.4035 0.522888 12.5 0.522888ZM20.2229 16.1999C20.1629 17.3883 19.8289 18.5602 18.9629 19.417C18.0884 20.282 16.911 20.6043 15.7111 20.6637H9.2889C8.0889 20.6043 6.9116 20.2822 6.03715 19.417C5.17105 18.5602 4.83715 17.3883 4.77715 16.1999V9.84589C4.83715 8.65749 5.1711 7.48559 6.03715 6.62869C6.9116 5.76369 8.08905 5.44139 9.2889 5.38204H15.7111C16.9111 5.44139 18.0884 5.76354 18.9628 6.62869C19.8289 7.48559 20.1629 8.65749 20.2229 9.84589L20.2229 16.1999Z" fill="white"/>
<path d="M15.7036 6.61678C14.107 6.5724 10.9114 6.5724 9.31486 6.61678C8.48402 6.63989 7.54214 6.84952 6.95018 7.49032C6.33505 8.15642 6.1026 8.96118 6.07902 9.86147C6.03758 11.4416 6.07902 16.1843 6.07902 16.1843C6.10602 17.0845 6.33505 17.8894 6.95018 18.5555C7.54214 19.1965 8.48402 19.4059 9.31486 19.429C10.9114 19.4734 14.107 19.4734 15.7036 19.429C16.5344 19.4059 17.4763 19.1963 18.0682 18.5555C18.6834 17.8894 18.9158 17.0846 18.9394 16.1843V9.86147C18.9158 8.96118 18.6834 8.15642 18.0682 7.49032C17.4761 6.84931 16.5342 6.63989 15.7036 6.61678ZM12.509 17.2316C11.6877 17.2316 10.8848 16.9847 10.2019 16.5223C9.51901 16.0598 8.98675 15.4025 8.67244 14.6335C8.35814 13.8644 8.2759 13.0182 8.43613 12.2018C8.59636 11.3854 8.99187 10.6355 9.57263 10.0469C10.1534 9.45829 10.8933 9.05746 11.6989 8.89506C12.5044 8.73267 13.3394 8.81602 14.0982 9.13456C14.857 9.45311 15.5055 9.99255 15.9618 10.6847C16.4181 11.3768 16.6617 12.1905 16.6617 13.0229C16.6617 14.1391 16.2242 15.2096 15.4454 15.9989C14.6666 16.7882 13.6104 17.2316 12.509 17.2316ZM16.6793 9.68293C16.5151 9.68289 16.3545 9.63349 16.218 9.54097C16.0814 9.44845 15.975 9.31698 15.9122 9.16317C15.8493 9.00936 15.8329 8.84012 15.865 8.67685C15.897 8.51358 15.9762 8.36362 16.0923 8.24592C16.2085 8.12822 16.3565 8.04807 16.5176 8.01561C16.6787 7.98315 16.8457 7.99983 16.9974 8.06354C17.1492 8.12726 17.2789 8.23515 17.3701 8.37357C17.4614 8.51199 17.5101 8.67472 17.5101 8.84119C17.5101 8.95175 17.4886 9.06122 17.4468 9.16336C17.4051 9.2655 17.3439 9.3583 17.2667 9.43646C17.1896 9.51463 17.098 9.57663 16.9972 9.61892C16.8964 9.6612 16.7884 9.68296 16.6793 9.68293Z" fill="white"/>
</svg>
