<svg width="52" height="52" viewBox="0 0 52 52" fill="none" xmlns="http://www.w3.org/2000/svg">
<path d="M38.4325 7.1492L27.4903 7.09295C27.2277 7.09187 26.9675 7.14279 26.7247 7.24278C26.4819 7.34276 26.2613 7.48983 26.0757 7.6755C25.89 7.86117 25.7429 8.08176 25.643 8.32456C25.543 8.56735 25.492 8.82754 25.4931 9.09011C25.492 9.35268 25.543 9.61287 25.643 9.85566C25.7429 10.0985 25.89 10.319 26.0757 10.5047C26.2613 10.6904 26.4819 10.8375 26.7247 10.9374C26.9675 11.0374 27.2277 11.0884 27.4903 11.0873L37.5324 11.1154L8.85477 39.793C8.48176 40.166 8.2722 40.6719 8.2722 41.1994C8.2722 41.727 8.48176 42.2329 8.85477 42.6059C9.22779 42.9789 9.7337 43.1885 10.2612 43.1885C10.7887 43.1885 11.2947 42.9789 11.6677 42.6059L40.4297 13.8439L40.4297 24.0266C40.4419 24.5376 40.6503 25.0242 41.0117 25.3855C41.373 25.7469 41.8596 25.9553 42.3706 25.9676C42.6331 25.9686 42.8933 25.9177 43.1361 25.8177C43.3789 25.7177 43.5995 25.5707 43.7852 25.385C43.9708 25.1993 44.1179 24.9787 44.2179 24.7359C44.3179 24.4931 44.3688 24.233 44.3677 23.9704L44.3959 13.1126C44.3949 11.5313 43.7663 10.0151 42.6481 8.89692C41.53 7.77878 40.0138 7.15019 38.4325 7.1492Z" fill="white"/>
</svg>
