<svg width="18" height="18" viewBox="0 0 18 18" fill="none" xmlns="http://www.w3.org/2000/svg">
<path d="M8.99943 9.6715e-06C8.31193 -0.00125858 7.63097 0.134208 6.99583 0.398598C6.36069 0.662989 5.78392 1.05107 5.29878 1.54048C3.46536 3.38184 3.23491 6.68717 4.7566 8.81031L4.75546 8.81687L4.78018 8.85113L4.78047 8.85227L4.79212 8.86769L4.79439 8.87083C4.79468 8.8714 4.78985 8.86483 4.79837 8.87711C4.80832 8.89081 4.81258 8.89595 4.80292 8.88282C4.79553 8.87283 4.79837 8.87511 4.79439 8.86626L4.79525 8.86769C4.79894 8.87397 4.80207 8.88196 4.80491 8.88596L4.80633 8.88739L4.80803 8.88967L4.81031 8.89281L8.7434 14.5999L8.99943 14.9713L9.35975 14.4495L13.1948 8.88539L13.1971 8.88196C14.773 6.75511 14.5523 3.39983 12.7009 1.54048C12.2157 1.05102 11.6389 0.662902 11.0036 0.39851C10.3684 0.134119 9.68703 -0.00131828 8.99943 9.6715e-06ZM8.99943 1.38289C10.0338 1.38289 10.9965 1.78342 11.728 2.51797C13.0539 3.85004 13.2335 6.5213 12.0846 8.06719L12.0832 8.06948C12.0434 8.12258 12.0451 8.12372 12.0792 8.07519L8.99972 12.5439L5.91513 8.06748L5.91229 8.06462C5.3397 7.29639 5.08935 6.24438 5.15642 5.2155C5.22348 4.18576 5.60823 3.18515 6.27175 2.51826C6.62875 2.15667 7.05381 1.87009 7.52216 1.67522C7.99051 1.48034 8.4925 1.38078 8.99943 1.38289ZM9.04405 3.01528C7.84033 3.01528 6.85514 4.00534 6.85514 5.21436C6.85514 6.42338 7.84033 7.41344 9.04405 7.41344C10.2478 7.41344 11.233 6.42338 11.233 5.21436C11.233 4.00534 10.2478 3.01528 9.04405 3.01528ZM9.04405 4.39816C9.15098 4.39733 9.25701 4.41787 9.35597 4.45858C9.45493 4.4993 9.54484 4.55939 9.62047 4.63534C9.6961 4.7113 9.75594 4.8016 9.7965 4.90101C9.83706 5.00041 9.85754 5.10693 9.85675 5.21436C9.85754 5.32179 9.83706 5.42831 9.7965 5.52771C9.75594 5.62712 9.6961 5.71742 9.62047 5.79338C9.54484 5.86933 9.45493 5.92942 9.35597 5.97014C9.25701 6.01085 9.15098 6.03139 9.04405 6.03056C8.93711 6.03135 8.83109 6.01078 8.73214 5.97003C8.6332 5.92927 8.54331 5.86916 8.4677 5.79318C8.3921 5.7172 8.3323 5.62687 8.29177 5.52745C8.25124 5.42803 8.23079 5.32151 8.23162 5.21407C8.23087 5.10667 8.25138 5.00018 8.29196 4.90081C8.33254 4.80144 8.39238 4.71116 8.46801 4.63524C8.54363 4.55932 8.63353 4.49926 8.73247 4.45856C8.83141 4.41786 8.93714 4.39733 9.04405 4.39816ZM4.87339 12.2715L4.79041 12.2815L4.74921 12.2863C3.94673 12.3811 2.6555 12.7231 1.69077 13.1836C1.20854 13.4137 0.80759 13.6727 0.508651 13.9807C0.207439 14.2904 0 14.6716 0 15.0961C0 15.5905 0.29695 16.0216 0.727741 16.3599C1.15626 16.6959 1.74447 16.9774 2.49523 17.2164C3.99788 17.6948 6.16747 18 9 18C11.8325 18 14.0021 17.6948 15.5045 17.2164C16.2552 16.9774 16.8437 16.6959 17.272 16.3599C17.7031 16.0216 18 15.5905 18 15.0961C18 14.6716 17.7923 14.2904 17.4914 13.9807C17.1924 13.6724 16.7912 13.4137 16.3092 13.1836C15.3445 12.7231 14.0535 12.3814 13.2545 12.2872L13.1306 12.2721L11.8365 13.6375L12.302 13.7095L12.3091 13.7121L12.3295 13.7138C13.779 13.8862 14.8813 14.2051 15.5906 14.528C15.9458 14.6895 16.2055 14.8568 16.3479 14.9819C16.4019 15.0296 16.4257 15.0632 16.4479 15.0932C16.4024 15.14 16.3075 15.2188 16.1686 15.2999C15.8674 15.4755 15.363 15.6773 14.7043 15.8535C13.3858 16.2057 11.4302 16.4744 9 16.4744C6.56984 16.4744 4.61423 16.206 3.29572 15.8535C2.63675 15.677 2.13264 15.4755 1.83114 15.2996C1.69219 15.2188 1.59699 15.1398 1.55181 15.0929C1.57369 15.0632 1.59785 15.0301 1.65212 14.9822C1.79449 14.8566 2.0545 14.6895 2.40913 14.5282C3.12011 14.2042 4.22493 13.8845 5.67928 13.7126L5.68894 13.7115L5.69576 13.7101L6.1544 13.629L4.87339 12.2715Z" fill="#1B2E71"/>
</svg>
