<svg width="18" height="19" viewBox="0 0 18 19" fill="none" xmlns="http://www.w3.org/2000/svg">
<path d="M9.0004 0.00146484C10.0362 0.00146484 10.8754 0.840715 10.8754 1.87646C10.8754 2.91221 10.0362 3.75146 9.0004 3.75146C7.96465 3.75146 7.1254 2.91221 7.1254 1.87646C7.1254 0.840715 7.96465 0.00146484 9.0004 0.00146484ZM11.2504 14.2515V11.1232C12.1234 10.8135 12.7504 9.97946 12.7504 9.00146V7.50146C12.7504 5.84696 11.4049 4.50146 9.7504 4.50146H8.2504C6.5959 4.50146 5.2504 5.84696 5.2504 7.50146V9.00146C5.2504 9.97946 5.8774 10.8135 6.7504 11.1232V14.2515C6.7504 14.6655 7.08565 15.0015 7.5004 15.0015C7.91515 15.0015 8.2504 14.6655 8.2504 14.2515V10.5015C8.2504 10.0875 7.91515 9.75146 7.5004 9.75146C7.08565 9.75146 6.7504 9.41471 6.7504 9.00146V7.50146C6.7504 6.67421 7.42315 6.00146 8.2504 6.00146H9.7504C10.5777 6.00146 11.2504 6.67421 11.2504 7.50146V9.00146C11.2504 9.41471 10.9144 9.75146 10.5004 9.75146C10.0864 9.75146 9.7504 10.0875 9.7504 10.5015V14.2515C9.7504 14.6655 10.0857 15.0015 10.5004 15.0015C10.9152 15.0015 11.2504 14.6655 11.2504 14.2515ZM18.0004 14.6265C18.0004 13.3155 16.4562 12.273 13.6527 11.6917C13.2484 11.607 12.8502 11.868 12.7654 12.2737C12.6814 12.6795 12.9417 13.0762 13.3474 13.1602C15.7062 13.65 16.4997 14.3722 16.4997 14.6265C16.4997 15.1875 13.9482 16.5015 8.99965 16.5015C4.05115 16.5015 1.49965 15.1875 1.49965 14.6265C1.49965 14.3722 2.2939 13.65 4.6519 13.1602C5.05765 13.0762 5.31865 12.6787 5.2339 12.2737C5.14915 11.868 4.7494 11.607 4.34665 11.6917C1.54315 12.273 -0.00109863 13.3155 -0.00109863 14.6265C-0.00109863 16.9455 4.66465 18.0015 8.9989 18.0015C13.3332 18.0015 17.9989 16.9455 17.9989 14.6265H18.0004Z" fill="#FEC400"/>
</svg>
