<svg width="50" height="41" viewBox="0 0 50 41" fill="none" xmlns="http://www.w3.org/2000/svg">
<path d="M47.7273 41C46.4705 41 45.4545 39.9796 45.4545 38.7222V2.27778C45.4545 1.02044 46.4705 0 47.7273 0C48.9841 0 50 1.02044 50 2.27778V38.7222C50 39.9796 48.9841 41 47.7273 41ZM38.6364 41C37.3795 41 36.3636 39.9796 36.3636 38.7222V2.27778C36.3636 1.02044 37.3795 0 38.6364 0C39.8932 0 40.9091 1.02044 40.9091 2.27778V38.7222C40.9091 39.9796 39.8932 41 38.6364 41ZM7.56136 40.3827C6.40455 40.3827 5.23636 40.1048 4.13182 39.5468C1.54318 38.2302 0 35.7133 0 32.8091V8.19317C0 5.289 1.54318 2.76978 4.12955 1.4555C6.67273 0.164 9.70227 0.414556 11.9932 2.10467L28.7386 14.4092C30.6932 15.8465 31.8159 18.0673 31.8159 20.5C31.8159 22.9327 30.6932 25.1535 28.7364 26.5908L11.9909 38.8976C10.6545 39.8816 9.11591 40.3827 7.56136 40.3827ZM7.55455 5.17967C7.08864 5.17967 6.62727 5.29355 6.18409 5.51905C5.14318 6.0475 4.54545 7.02239 4.54545 8.19317V32.8091C4.54545 33.9799 5.14318 34.9525 6.18409 35.4832C7.22727 36.0117 8.36364 35.916 9.30227 35.2281L26.05 22.919C26.8386 22.3404 27.2727 21.4817 27.2727 20.5023C27.2727 19.5228 26.8386 18.6641 26.05 18.0856L9.30455 5.77644C8.775 5.38467 8.16818 5.17967 7.55455 5.17967Z" fill="white"/>
</svg>
