<svg width="44" height="43" viewBox="0 0 44 43" fill="none" xmlns="http://www.w3.org/2000/svg">
<path d="M33.6875 19.2576H35.0625V20.6326H33.6875V19.2576Z" fill="white"/>
<path d="M36.4375 19.2576H37.8125V20.6326H36.4375V19.2576Z" fill="white"/>
<path d="M14.3131 6.5889L13.1869 5.80103L8.84401 12.0043L7.36107 10.5214L6.38895 11.4935L9.03101 14.1356L14.3131 6.5889Z" fill="white"/>
<path d="M24.75 20.6326C25.1297 20.6326 25.4375 20.3248 25.4375 19.9451C25.4375 19.5654 25.1297 19.2576 24.75 19.2576C24.3703 19.2576 24.0625 19.5654 24.0625 19.9451C24.0625 20.3248 24.3703 20.6326 24.75 20.6326Z" fill="white"/>
<path d="M34.375 22.0076C29.6787 22.0076 25.8259 25.6506 25.4726 30.2576H21.3125V25.4451C21.3125 24.3079 20.3871 23.3826 19.25 23.3826C18.9784 23.3826 18.7206 23.4383 18.4827 23.5338C18.2456 22.6573 17.4508 22.0076 16.5 22.0076C15.9699 22.0076 15.4908 22.2145 15.125 22.5438C14.7592 22.2138 14.2801 22.0076 13.75 22.0076C13.508 22.0076 13.2784 22.0571 13.0625 22.1341V20.6326H21.3819C21.7016 22.1994 23.0897 23.3826 24.75 23.3826C26.4103 23.3826 27.7984 22.1994 28.1181 20.6326H32.3125V19.2576H28.1181C27.7984 17.6908 26.4103 16.5076 24.75 16.5076C23.0897 16.5076 21.7016 17.6908 21.3819 19.2576H13.0625V18.6753C13.2983 17.8413 14.0587 17.0858 14.9408 16.2154C16.4512 14.7242 18.3068 12.8913 18.5378 9.63188H25.4719C25.8252 14.2395 29.6787 17.8826 34.375 17.8826C39.303 17.8826 43.3125 13.8731 43.3125 8.94507C43.3125 4.01707 39.303 0.00756836 34.375 0.00756836C29.6787 0.00756836 25.8252 3.65063 25.4726 8.25757H18.5274C18.1747 3.65063 14.3213 0.00756836 9.625 0.00756836C4.697 0.00756836 0.6875 4.01707 0.6875 8.94507C0.6875 12.6404 2.69569 14.6231 4.30925 16.2161C5.21263 17.1078 5.99362 17.8784 6.20812 18.7371L6.33806 19.2576H8.9375V20.6326H6.1875V22.0076H8.9375V27.4505C8.93681 27.5089 8.833 27.5179 8.82406 27.4608L8.62262 26.2508C8.34625 24.5884 6.92244 23.3826 5.23738 23.3826C4.24463 23.3826 3.4375 24.1904 3.4375 25.223C3.4375 25.4588 3.4815 25.6891 3.56881 25.9064L3.9765 26.9253C4.54369 28.3436 4.94037 29.8279 5.15625 31.3383C5.38794 32.9643 6.26175 34.4252 7.5625 35.4131V40.5701C7.5625 41.7072 8.48787 42.6326 9.625 42.6326H17.875C19.0121 42.6326 19.9375 41.7072 19.9375 40.5701V35.2639C20.6367 34.1571 21.0781 32.9223 21.2389 31.6326H25.4726C25.8259 36.2395 29.6787 39.8826 34.375 39.8826C39.303 39.8826 43.3125 35.8731 43.3125 30.9451C43.3125 26.0171 39.303 22.0076 34.375 22.0076ZM24.75 17.8826C25.8871 17.8826 26.8125 18.8079 26.8125 19.9451C26.8125 21.0822 25.8871 22.0076 24.75 22.0076C23.6129 22.0076 22.6875 21.0822 22.6875 19.9451C22.6875 18.8079 23.6129 17.8826 24.75 17.8826ZM31.4799 7.41607C31.1451 7.24901 30.9375 6.91282 30.9375 6.53882C30.9375 6.16482 31.1451 5.82863 31.4799 5.66157L32.1372 5.33226L32.2396 5.12738C32.5469 4.51413 33.1636 4.13257 33.8498 4.13257H35.5829C36.8122 4.13257 37.8125 5.13288 37.8125 6.36213C37.8125 6.95751 37.5808 7.51713 37.1594 7.93857L36.8569 8.24107C35.8999 8.15994 35.0288 7.65532 34.4905 6.84751L33.8779 5.92901L31.5755 7.46419L31.4799 7.41607ZM35.0625 12.452C36.5839 12.7621 37.7321 14.0834 37.7981 15.6798C36.9627 16.1061 36.0401 16.3845 35.0625 16.4732V12.452ZM33 11.0076C32.6212 11.0076 32.3125 10.6989 32.3125 10.3201V8.62538L33.5033 7.83132C34.2203 8.78007 35.2729 9.40294 36.4375 9.58032V10.3201C36.4375 10.6989 36.1288 11.0076 35.75 11.0076H33ZM33.6875 12.452V16.4725C32.7099 16.3838 31.7873 16.1061 30.9519 15.6791C31.0179 14.0834 32.1661 12.7621 33.6875 12.452ZM34.375 1.38257C38.5447 1.38257 41.9375 4.77538 41.9375 8.94507C41.9375 11.3328 40.8224 13.4619 39.0892 14.8486C38.8355 13.6153 38.1074 12.5551 37.1064 11.8621C37.5354 11.484 37.8125 10.9361 37.8125 10.3201V9.22969L38.1315 8.91069C38.8121 8.23007 39.1875 7.32463 39.1875 6.36213C39.1875 4.37457 37.5705 2.75757 35.5829 2.75757H33.8498C32.7202 2.75757 31.6979 3.34332 31.1259 4.30101L30.8653 4.43094C30.0616 4.83313 29.5625 5.64026 29.5625 6.53882C29.5625 7.43738 30.0616 8.24451 30.8653 8.64601L30.9375 8.68244V10.3201C30.9375 10.9361 31.2146 11.484 31.6442 11.8621C30.6432 12.5551 29.9152 13.6159 29.6615 14.8486C27.9276 13.4619 26.8125 11.3328 26.8125 8.94507C26.8125 4.77538 30.2053 1.38257 34.375 1.38257ZM5.27519 15.2371C3.76956 13.7507 2.0625 12.0663 2.0625 8.94507C2.0625 4.77538 5.45531 1.38257 9.625 1.38257C13.7947 1.38257 17.1875 4.77538 17.1875 8.94507C17.1875 12.0663 15.4804 13.7507 13.9748 15.2371C13.3746 15.8297 12.7971 16.4044 12.3606 17.0314C11.9962 16.7097 11.5232 16.5076 11 16.5076C10.1049 16.5076 9.34863 17.0844 9.064 17.8826H7.36863C6.95544 16.896 6.13594 16.0868 5.27519 15.2371ZM18.5625 40.5701C18.5625 40.9496 18.2538 41.2576 17.875 41.2576H9.625C9.24619 41.2576 8.9375 40.9496 8.9375 40.5701V35.7576H18.5625V40.5701ZM19.9375 30.5291C19.9375 31.8945 19.5656 33.2179 18.8664 34.3826H8.47687C7.41675 33.6126 6.70381 32.4459 6.5175 31.1438C6.2865 29.5254 5.86094 27.9338 5.25388 26.4151L4.84619 25.3949C4.8235 25.3406 4.8125 25.2828 4.8125 25.1824C4.8125 24.948 5.00294 24.7576 5.23738 24.7576C6.24731 24.7576 7.1005 25.4808 7.26687 26.4763L7.46831 27.6863C7.58381 28.38 8.17781 28.8826 8.88113 28.8826C9.67037 28.8826 10.3125 28.2398 10.3125 27.4505V18.5701C10.3125 18.1913 10.6212 17.8826 11 17.8826C11.3788 17.8826 11.6875 18.1913 11.6875 18.5701V27.5076H13.0625V24.0701C13.0625 23.6906 13.3712 23.3826 13.75 23.3826C14.1288 23.3826 14.4375 23.6906 14.4375 24.0701V27.5076H15.8125V24.0701C15.8125 23.6906 16.1212 23.3826 16.5 23.3826C16.8788 23.3826 17.1875 23.6906 17.1875 24.0701V27.5076H18.5625V25.4451C18.5625 25.0656 18.8712 24.7576 19.25 24.7576C19.6288 24.7576 19.9375 25.0656 19.9375 25.4451V30.5291ZM36.5894 33.5521C37.3312 32.9209 37.8125 31.9928 37.8125 30.9451V30.5559L33.6683 28.0699L30.9375 29.8898V30.9451C30.9375 31.9928 31.4187 32.9209 32.1606 33.5521C31.5672 33.8614 31.0461 34.2891 30.6295 34.8061C29.9406 33.6421 29.5625 32.2994 29.5625 30.9451C29.5625 28.292 31.7213 26.1326 34.375 26.1326C37.0288 26.1326 39.1875 28.292 39.1875 30.9451C39.1875 32.3001 38.8094 33.6421 38.1205 34.8054C37.7039 34.2891 37.1828 33.8608 36.5894 33.5521ZM32.3125 30.9451V30.6254L33.7067 29.6952L36.4038 31.3136C36.2299 32.2761 35.3863 33.0076 34.375 33.0076C33.2379 33.0076 32.3125 32.0822 32.3125 30.9451ZM34.375 34.3826C34.7036 34.3826 35.0157 34.4438 35.3176 34.5304L34.375 35.4729L33.4324 34.5304C33.7343 34.4438 34.0464 34.3826 34.375 34.3826ZM30.9519 37.6798C30.9932 36.6871 31.4559 35.8105 32.1667 35.2083L34.375 37.4172L36.5839 35.2083C37.2948 35.8105 37.7575 36.6871 37.7987 37.6798C36.7689 38.2051 35.6077 38.5076 34.375 38.5076C33.1423 38.5076 31.9811 38.2051 30.9519 37.6798ZM39.0892 36.8486C39.0397 36.608 38.9668 36.3763 38.8829 36.1508C39.9644 34.6418 40.5625 32.8027 40.5625 30.9451C40.5625 27.533 37.7864 24.7576 34.375 24.7576C30.9636 24.7576 28.1875 27.533 28.1875 30.9451C28.1875 32.802 28.7856 34.6411 29.8671 36.1508C29.7832 36.377 29.7103 36.608 29.6608 36.8486C27.9276 35.4619 26.8125 33.3328 26.8125 30.9451C26.8125 26.7754 30.2053 23.3826 34.375 23.3826C38.5447 23.3826 41.9375 26.7754 41.9375 30.9451C41.9375 33.3328 40.8224 35.4619 39.0892 36.8486Z" fill="white"/>
</svg>
