<svg width="66" height="103" viewBox="0 0 66 103" fill="none" xmlns="http://www.w3.org/2000/svg">
                <path fill-rule="evenodd" clip-rule="evenodd" d="M37.7709 51.9129L37.6605 51.8025L36.7438 50.8859L32.9153 47.0573L0.929047 15.0711L15.0712 0.928955L47.0574 32.9152L50.886 36.7437L51.8026 37.6604L52.7008 38.5585L52.9223 38.7801L53.0326 38.8904L53.1426 39.0003L53.5794 39.4371L54.011 39.8687L54.4372 40.295L54.6484 40.5061L54.7534 40.6112L54.8581 40.7159L55.2733 41.1311L55.6828 41.5406L55.7843 41.6421L55.8854 41.7431L56.0864 41.9442L56.484 42.3418L56.8755 42.7333L56.9724 42.8302L57.0689 42.9266L57.165 43.0227L57.2606 43.1184L57.6394 43.4971L57.733 43.5908L57.8263 43.684L58.0115 43.8693L58.3769 44.2347L58.7355 44.5932L58.9121 44.7699L58.9998 44.8576L59.087 44.9448L59.1738 45.0316L59.2601 45.1179L59.346 45.2038L59.4314 45.2892L59.6009 45.4587L59.685 45.5428L59.7686 45.6263L59.8517 45.7095L59.9344 45.7921L60.0983 45.9561L60.1795 46.0373L60.2603 46.1181L60.3406 46.1984L60.4204 46.2782L60.5786 46.4364L60.657 46.5148L60.7349 46.5927L60.8123 46.6701L60.8892 46.747L60.9656 46.8234L61.0415 46.8993L61.1918 47.0496L61.2662 47.124L61.3401 47.1979L61.4864 47.3442L61.5588 47.4165L61.6306 47.4884L61.702 47.5597L61.7728 47.6306L61.9129 47.7706L61.9821 47.8399L62.0509 47.9086L62.119 47.9768L62.1867 48.0445L62.3204 48.1782L62.3865 48.2443L62.452 48.3098L62.5814 48.4392L62.6453 48.5031L62.7086 48.5664L62.8336 48.6914L62.8953 48.7531L62.9564 48.8142L63.0169 48.8747L63.0769 48.9347L63.1952 49.053L63.2535 49.1113L63.3112 49.169L63.4249 49.2827L63.4809 49.3387L63.5363 49.3941L63.5912 49.4489L63.6454 49.5032L63.6991 49.5568L63.7521 49.6099L63.8565 49.7143L63.9078 49.7655L63.9585 49.8162L64.0086 49.8663L64.058 49.9158L64.1069 49.9647L64.1552 50.013L64.2029 50.0606L64.2499 50.1077L64.2964 50.1541L64.3422 50.2L64.3874 50.2452L64.432 50.2898L64.476 50.3338L64.5193 50.3771L64.5621 50.4198L64.6041 50.4619L64.6456 50.5034L64.6864 50.5442L64.7266 50.5844L64.7662 50.624L64.8051 50.6629L64.8434 50.7012L64.881 50.7388L64.918 50.7758L64.9543 50.8121L64.99 50.8478L65.0251 50.8828L65.0595 50.9172L65.0932 50.951L65.1262 50.984L65.1587 51.0164L65.1904 51.0482L65.2215 51.0792L65.2519 51.1097L65.2816 51.1394L65.3107 51.1685L65.3391 51.1968L65.3668 51.2246L65.3938 51.2516L65.4202 51.278L65.4459 51.3036L65.4708 51.3286L65.4951 51.3529L65.5188 51.3765L65.5417 51.3994L65.5639 51.4217L65.5854 51.4432L65.6063 51.464L65.6264 51.4842L65.6458 51.5036L65.6645 51.5223L65.6825 51.5403L65.6998 51.5576L65.7164 51.5742L65.7323 51.5901L65.7475 51.6052L65.7619 51.6197L65.7756 51.6334L65.7886 51.6464L65.8009 51.6587L65.8125 51.6702L65.8233 51.6811L65.8334 51.6912L65.8427 51.7005L65.8514 51.7091L65.8592 51.717L65.8664 51.7241L65.8728 51.7305L65.8784 51.7362L65.8833 51.7411L65.8875 51.7453L65.8909 51.7487L65.8936 51.7513L65.8955 51.7532L65.8966 51.7544L65.897 51.7547L65.7388 51.9129L65.897 52.0711L65.8966 52.0715L65.8955 52.0726L65.8936 52.0745L65.8909 52.0771L65.8875 52.0806L65.8833 52.0847L65.8784 52.0896L65.8728 52.0953L65.8664 52.1017L65.8592 52.1088L65.8514 52.1167L65.8427 52.1253L65.8334 52.1347L65.8233 52.1448L65.8125 52.1556L65.8009 52.1671L65.7886 52.1794L65.7756 52.1924L65.7619 52.2061L65.7475 52.2206L65.7323 52.2357L65.7164 52.2516L65.6998 52.2682L65.6825 52.2855L65.6645 52.3035L65.6458 52.3222L65.6264 52.3417L65.6063 52.3618L65.5854 52.3826L65.5639 52.4042L65.5417 52.4264L65.5188 52.4493L65.4951 52.4729L65.4708 52.4972L65.4459 52.5222L65.4202 52.5479L65.3938 52.5742L65.3668 52.6013L65.3391 52.629L65.3107 52.6574L65.2816 52.6864L65.2519 52.7162L65.2215 52.7466L65.1904 52.7777L65.1587 52.8094L65.1262 52.8418L65.0932 52.8749L65.0595 52.9086L65.0251 52.943L64.99 52.978L64.9543 53.0137L64.918 53.05L64.881 53.087L64.8434 53.1247L64.8051 53.1629L64.7662 53.2019L64.7266 53.2414L64.6864 53.2816L64.6456 53.3224L64.6041 53.3639L64.5621 53.406L64.5193 53.4487L64.476 53.4921L64.432 53.536L64.3874 53.5806L64.3422 53.6258L64.2964 53.6717L64.2499 53.7181L64.2029 53.7652L64.1552 53.8128L64.1069 53.8611L64.058 53.91L64.0086 53.9595L63.9585 54.0096L63.9078 54.0603L63.8565 54.1116L63.7521 54.2159L63.6991 54.269L63.6454 54.3226L63.5912 54.3769L63.5363 54.4317L63.4809 54.4871L63.4249 54.5431L63.3112 54.6568L63.2535 54.7145L63.1952 54.7728L63.0769 54.8911L63.0169 54.9511L62.9564 55.0117L62.8953 55.0728L62.8336 55.1344L62.7086 55.2594L62.6453 55.3228L62.5814 55.3866L62.452 55.516L62.3865 55.5816L62.3204 55.6476L62.1867 55.7813L62.119 55.849L62.0509 55.9172L61.9821 55.9859L61.9129 56.0552L61.7728 56.1953L61.702 56.2661L61.6306 56.3374L61.5588 56.4093L61.4864 56.4816L61.3401 56.6279L61.2662 56.7018L61.1918 56.7762L61.0415 56.9265L60.9656 57.0025L60.8892 57.0789L60.8123 57.1558L60.7349 57.2332L60.657 57.311L60.5786 57.3894L60.4204 57.5476L60.3406 57.6274L60.2603 57.7077L60.1795 57.7885L60.0983 57.8698L59.9344 58.0337L59.8517 58.1163L59.7686 58.1995L59.685 58.2831L59.6009 58.3671L59.4314 58.5366L59.346 58.622L59.2601 58.7079L59.1738 58.7942L59.087 58.881L58.9998 58.9683L58.9121 59.0559L58.7355 59.2326L58.3769 59.5911L58.0115 59.9566L57.8263 60.1418L57.733 60.235L57.6394 60.3287L57.2606 60.7074L57.165 60.8031L57.0689 60.8992L56.9724 60.9957L56.8755 61.0926L56.484 61.484L56.0864 61.8816L55.8854 62.0827L55.7843 62.1838L55.6828 62.2852L55.2733 62.6947L54.8581 63.11L54.7534 63.2147L54.6484 63.3197L54.4372 63.5308L54.011 63.9571L53.5794 64.3887L53.1426 64.8255L53.0326 64.9355L52.9223 65.0458L52.7008 65.2673L51.8026 66.1655L50.886 67.0821L47.0574 70.9106L15.0712 102.897L0.929047 88.7547L32.9153 56.7685L36.7438 52.9399L37.6605 52.0233L37.7709 51.9129Z" fill="#3257A2" />
            </svg>