<svg width="66" height="103" viewBox="0 0 66 103" fill="none" xmlns="http://www.w3.org/2000/svg">
                <path fill-rule="evenodd" clip-rule="evenodd" d="M29.0551 51.9129L29.1655 51.8025L30.0821 50.8859L33.9107 47.0573L65.8969 15.0711L51.7547 0.928955L19.7685 32.9152L15.94 36.7437L15.0233 37.6604L14.1252 38.5585L13.9036 38.7801L13.7933 38.8904L13.6834 39.0003L13.2466 39.4371L12.815 39.8687L12.3887 40.295L12.1776 40.5061L12.0725 40.6112L11.9678 40.7159L11.5526 41.1311L11.1431 41.5406L11.0416 41.6421L10.9406 41.7431L10.7395 41.9442L10.3419 42.3418L9.95043 42.7333L9.85355 42.8302L9.75706 42.9266L9.66097 43.0227L9.56528 43.1184L9.18657 43.4971L9.09291 43.5908L8.99967 43.684L8.81443 43.8693L8.44902 44.2347L8.09046 44.5932L7.9138 44.7699L7.82613 44.8576L7.73891 44.9448L7.65213 45.0316L7.5658 45.1179L7.47992 45.2038L7.39449 45.2892L7.225 45.4587L7.14095 45.5428L7.05735 45.6263L6.97422 45.7095L6.89156 45.7921L6.72764 45.9561L6.64639 46.0373L6.56561 46.1181L6.48531 46.1984L6.40549 46.2782L6.24729 46.4364L6.16892 46.5148L6.09104 46.5927L6.01364 46.6701L5.93674 46.747L5.86034 46.8234L5.78443 46.8993L5.63411 47.0496L5.5597 47.124L5.4858 47.1979L5.33952 47.3442L5.26715 47.4166L5.19529 47.4884L5.12395 47.5597L5.05313 47.6306L4.91305 47.7706L4.8438 47.8399L4.77508 47.9086L4.70688 47.9768L4.63922 48.0445L4.50549 48.1782L4.43944 48.2443L4.37392 48.3098L4.24452 48.4392L4.18064 48.5031L4.11731 48.5664L3.99231 48.6914L3.93064 48.7531L3.86953 48.8142L3.80898 48.8747L3.74899 48.9347L3.63071 49.053L3.57242 49.1113L3.5147 49.169L3.40099 49.2827L3.34501 49.3387L3.2896 49.3941L3.23477 49.4489L3.18053 49.5032L3.12687 49.5568L3.0738 49.6099L2.96944 49.7143L2.91816 49.7655L2.86747 49.8162L2.81738 49.8663L2.76789 49.9158L2.719 49.9647L2.67073 50.013L2.62306 50.0606L2.576 50.1077L2.52955 50.1541L2.48372 50.2L2.43851 50.2452L2.39392 50.2898L2.34995 50.3338L2.3066 50.3771L2.26388 50.4198L2.22178 50.4619L2.18032 50.5034L2.13949 50.5442L2.0993 50.5844L2.05974 50.624L2.02082 50.6629L1.98254 50.7012L1.94491 50.7388L1.90792 50.7758L1.87158 50.8121L1.83589 50.8478L1.80086 50.8828L1.76647 50.9172L1.73275 50.951L1.69968 50.984L1.66728 51.0164L1.63553 51.0482L1.60446 51.0792L1.57405 51.1097L1.54431 51.1394L1.51524 51.1685L1.48685 51.1969L1.45914 51.2246L1.4321 51.2516L1.40574 51.278L1.38007 51.3036L1.35508 51.3286L1.33078 51.3529L1.30717 51.3765L1.28426 51.3994L1.26203 51.4217L1.2405 51.4432L1.21968 51.464L1.19955 51.4842L1.18012 51.5036L1.1614 51.5223L1.14339 51.5403L1.12608 51.5576L1.10949 51.5742L1.09361 51.5901L1.07845 51.6052L1.06401 51.6197L1.05028 51.6334L1.03728 51.6464L1.02501 51.6587L1.01346 51.6702L1.00264 51.6811L0.99255 51.6912L0.983195 51.7005L0.974576 51.7091L0.966695 51.717L0.959554 51.7241L0.953155 51.7305L0.947501 51.7362L0.942594 51.7411L0.938436 51.7453L0.935029 51.7487L0.932375 51.7513L0.930476 51.7532L0.929336 51.7544L0.928955 51.7547L1.08712 51.9129L0.928955 52.0711L0.929336 52.0715L0.930476 52.0726L0.932375 52.0745L0.935029 52.0771L0.938436 52.0806L0.942594 52.0847L0.947501 52.0896L0.953155 52.0953L0.959554 52.1017L0.966695 52.1088L0.974576 52.1167L0.983195 52.1253L0.99255 52.1347L1.00264 52.1448L1.01346 52.1556L1.02501 52.1671L1.03728 52.1794L1.05028 52.1924L1.06401 52.2061L1.07845 52.2206L1.09361 52.2357L1.10949 52.2516L1.12608 52.2682L1.14339 52.2855L1.1614 52.3035L1.18012 52.3222L1.19955 52.3417L1.21968 52.3618L1.2405 52.3826L1.26203 52.4042L1.28426 52.4264L1.30717 52.4493L1.33078 52.4729L1.35508 52.4972L1.38007 52.5222L1.40574 52.5479L1.4321 52.5742L1.45914 52.6013L1.48685 52.629L1.51524 52.6574L1.54431 52.6864L1.57405 52.7162L1.60446 52.7466L1.63553 52.7777L1.66728 52.8094L1.69968 52.8418L1.73275 52.8749L1.76647 52.9086L1.80086 52.943L1.83589 52.978L1.87158 53.0137L1.90792 53.05L1.94491 53.087L1.98254 53.1247L2.02082 53.1629L2.05974 53.2019L2.0993 53.2414L2.13949 53.2816L2.18032 53.3224L2.22178 53.3639L2.26388 53.406L2.3066 53.4487L2.34995 53.4921L2.39392 53.536L2.43851 53.5806L2.48372 53.6258L2.52955 53.6717L2.576 53.7181L2.62306 53.7652L2.67073 53.8128L2.719 53.8611L2.76789 53.91L2.81738 53.9595L2.86747 54.0096L2.91816 54.0603L2.96944 54.1116L3.0738 54.2159L3.12687 54.269L3.18053 54.3226L3.23477 54.3769L3.2896 54.4317L3.34501 54.4871L3.40099 54.5431L3.5147 54.6568L3.57242 54.7145L3.63071 54.7728L3.74899 54.8911L3.80898 54.9511L3.86953 55.0117L3.93064 55.0728L3.99231 55.1344L4.11731 55.2594L4.18064 55.3228L4.24452 55.3866L4.37392 55.516L4.43944 55.5816L4.50549 55.6476L4.63922 55.7813L4.70688 55.849L4.77508 55.9172L4.8438 55.9859L4.91305 56.0552L5.05313 56.1953L5.12395 56.2661L5.19529 56.3374L5.26715 56.4093L5.33952 56.4816L5.4858 56.6279L5.5597 56.7018L5.63411 56.7762L5.78443 56.9265L5.86034 57.0025L5.93674 57.0789L6.01364 57.1558L6.09104 57.2332L6.16892 57.311L6.24729 57.3894L6.40549 57.5476L6.48531 57.6274L6.56561 57.7077L6.64639 57.7885L6.72764 57.8698L6.89156 58.0337L6.97422 58.1163L7.05735 58.1995L7.14095 58.2831L7.225 58.3671L7.39449 58.5366L7.47992 58.622L7.5658 58.7079L7.65213 58.7942L7.73891 58.881L7.82613 58.9683L7.9138 59.0559L8.09046 59.2326L8.44902 59.5911L8.81443 59.9566L8.99967 60.1418L9.09291 60.235L9.18657 60.3287L9.56528 60.7074L9.66097 60.8031L9.75706 60.8992L9.85355 60.9957L9.95043 61.0926L10.3419 61.484L10.7395 61.8816L10.9406 62.0827L11.0416 62.1838L11.1431 62.2852L11.5526 62.6947L11.9678 63.11L12.0725 63.2147L12.1776 63.3197L12.3887 63.5308L12.815 63.9571L13.2466 64.3887L13.6834 64.8255L13.7933 64.9355L13.9036 65.0458L14.1252 65.2673L15.0233 66.1655L15.94 67.0821L19.7685 70.9106L51.7547 102.897L65.8969 88.7547L33.9107 56.7685L30.0821 52.9399L29.1655 52.0233L29.0551 51.9129Z" fill="#3257A2" />
            </svg>