<svg width="18" height="18" viewBox="0 0 18 18" fill="none" xmlns="http://www.w3.org/2000/svg">
<path d="M17.9707 1.50071V4.50071C17.9707 4.69962 17.8917 4.89039 17.7511 5.03104C17.6104 5.17169 17.4197 5.25071 17.2207 5.25071C17.0218 5.25071 16.8311 5.17169 16.6904 5.03104C16.5498 4.89039 16.4707 4.69962 16.4707 4.50071V2.57846L12.4957 6.53246C12.3539 6.66873 12.1642 6.74384 11.9676 6.7416C11.7709 6.73935 11.583 6.65994 11.4443 6.52047C11.3056 6.381 11.2273 6.19263 11.2261 5.99595C11.225 5.79927 11.3012 5.61002 11.4382 5.46896L15.4282 1.50071H13.4707C13.2718 1.50071 13.0811 1.42169 12.9404 1.28104C12.7998 1.14039 12.7207 0.949624 12.7207 0.750711C12.7207 0.551799 12.7998 0.361034 12.9404 0.220381C13.0811 0.0797289 13.2718 0.000711308 13.4707 0.000711308H16.4707C16.8686 0.000711308 17.2501 0.158747 17.5314 0.440051C17.8127 0.721356 17.9707 1.10289 17.9707 1.50071ZM17.292 12.555C17.7266 12.9908 17.9707 13.5812 17.9707 14.1967C17.9707 14.8122 17.7266 15.4026 17.292 15.8385L16.608 16.626C10.4647 22.5045 -4.48201 7.56221 1.30799 1.40096L2.16974 0.650961C2.60631 0.22854 3.1915 -0.00524302 3.79895 8.92524e-05C4.40641 0.00542152 4.9874 0.249441 5.41649 0.679461C5.43899 0.702711 6.82874 2.50871 6.82874 2.50871C7.24099 2.9418 7.47054 3.51706 7.46971 4.11499C7.46887 4.71291 7.2377 5.28753 6.82424 5.71946L5.95499 6.81221C6.43563 7.98005 7.14229 9.0414 8.03437 9.93528C8.92645 10.8292 9.98638 11.538 11.1532 12.021L12.252 11.1472C12.6839 10.734 13.2583 10.5029 13.8561 10.5021C14.4538 10.5013 15.0289 10.7307 15.462 11.1427C15.462 11.1427 17.2687 12.5325 17.292 12.555ZM16.2607 13.6455C16.2607 13.6455 14.466 12.264 14.4427 12.2415C14.2882 12.0883 14.0795 12.0023 13.8619 12.0023C13.6443 12.0023 13.4355 12.0883 13.281 12.2415C13.2607 12.261 11.748 13.467 11.748 13.467C11.646 13.5481 11.5247 13.6013 11.396 13.6213C11.2672 13.6413 11.1355 13.6274 11.0137 13.581C9.50115 13.0185 8.12728 12.1372 6.98538 10.9968C5.84348 9.85646 4.96028 8.48379 4.39574 6.97196C4.34635 6.84905 4.3304 6.71525 4.3495 6.58417C4.3686 6.4531 4.42208 6.32942 4.50449 6.22571C4.50449 6.22571 5.70974 4.71296 5.72999 4.69271C5.88319 4.5382 5.96915 4.32942 5.96915 4.11184C5.96915 3.89425 5.88319 3.68547 5.72999 3.53096C5.70749 3.50846 4.32599 1.71296 4.32599 1.71296C4.16926 1.57224 3.96464 1.4968 3.75407 1.5021C3.54351 1.5074 3.34294 1.59304 3.19349 1.74146L2.33174 2.49146C-1.90126 7.57796 11.0535 19.815 15.5107 15.603L16.1947 14.8155C16.356 14.6675 16.4531 14.4624 16.4655 14.2439C16.4778 14.0253 16.4043 13.8106 16.2607 13.6455Z" fill="#1B2E71"/>
</svg>
