<svg width="48" height="53" viewBox="0 0 48 53" fill="none" xmlns="http://www.w3.org/2000/svg">
<path d="M37.4652 23.3866L37.612 23.2398C38.1145 22.7373 38.3918 22.0685 38.3918 21.3569C38.3918 19.9202 37.2468 18.754 35.8229 18.7036C35.7734 17.3113 34.6558 16.1937 33.2635 16.1442C33.214 14.7518 32.0964 13.6342 30.704 13.5847C30.6537 12.1608 29.4866 11.0159 28.0507 11.0159C27.3392 11.0159 26.6703 11.2932 26.1678 11.7957L26.0211 11.9424L17.1662 3.08755C16.2278 2.14823 14.9788 1.63123 13.6504 1.63123C12.322 1.63123 11.073 2.14823 10.1346 3.08755L1.45633 11.7658C0.517009 12.7043 0 13.9533 0 15.2816C0 16.61 0.517009 17.859 1.45633 18.7975L10.3112 27.6523L8.81816 29.1462C7.53331 30.4302 6.8252 32.139 6.8252 33.9563C6.8252 35.3034 7.22021 36.6078 7.96757 37.7297L11.9441 43.6941V52.8203H29.0071V43.7632C30.106 42.5372 30.7134 40.9751 30.7134 39.3157V37.8168L37.7877 30.7424C38.7279 29.8031 39.2449 28.5541 39.2449 27.2257C39.2449 25.8974 38.7279 24.6484 37.7877 23.7099L37.4652 23.3866ZM36.6855 21.3569C36.6855 21.6129 36.5856 21.8526 36.4056 22.0335L34.9058 23.5333C34.7249 23.7133 34.4852 23.8131 34.2292 23.8131C33.702 23.8131 33.2729 23.384 33.2729 22.8568C33.2729 22.6008 33.3727 22.3611 33.5527 22.1802L35.0525 20.6804C35.2334 20.5004 35.4731 20.4005 35.7291 20.4005C36.2563 20.4005 36.6855 20.8297 36.6855 21.3569ZM34.126 18.7975C34.126 19.0534 34.0262 19.2932 33.8462 19.474L32.3463 20.9739C32.1655 21.1539 31.9257 21.2537 31.6698 21.2537C31.1425 21.2537 30.7134 20.8246 30.7134 20.2973C30.7134 20.0414 30.8132 19.8016 30.9932 19.6208L32.4931 18.1209C32.6739 17.9409 32.9137 17.8411 33.1696 17.8411C33.6969 17.8411 34.126 18.2702 34.126 18.7975ZM31.5666 16.238C31.5666 16.494 31.4667 16.7337 31.2867 16.9146L29.7869 18.4144C29.606 18.5944 29.3663 18.6942 29.1103 18.6942C28.5831 18.6942 28.1539 18.2651 28.1539 17.7379C28.1539 17.4819 28.2538 17.2422 28.4338 17.0613L29.9336 15.5615C30.1145 15.3815 30.3542 15.2816 30.6102 15.2816C31.1374 15.2816 31.5666 15.7108 31.5666 16.238ZM28.0507 12.7222C28.578 12.7222 29.0071 13.1513 29.0071 13.6786C29.0071 13.9345 28.9073 14.1742 28.7273 14.3551L27.2274 15.855C27.0466 16.035 26.8068 16.1348 26.5509 16.1348C26.0236 16.1348 25.5945 15.7057 25.5945 15.1784C25.5945 14.9225 25.6943 14.6827 25.8743 14.5019L27.3742 13.002C27.555 12.822 27.7948 12.7222 28.0507 12.7222ZM26.457 17.8317C26.5065 19.224 27.6241 20.3417 29.0165 20.3912C29.066 21.7835 30.1836 22.9011 31.5759 22.9506C31.5896 23.3379 31.6877 23.7014 31.8506 24.029L20.4756 35.404L16.1331 31.0615C16.7311 30.4481 17.063 29.6427 17.063 28.7853C17.063 26.9843 15.5973 25.5194 13.7954 25.5194C12.9372 25.5194 12.1326 25.8513 11.5201 26.4485L5.4721 20.4005L18.7693 7.10333L24.8147 13.1488L24.668 13.2955C24.1655 13.798 23.8882 14.4669 23.8882 15.1784C23.8882 16.6143 25.0331 17.7814 26.457 17.8317ZM1.7063 15.2816C1.7063 14.4097 2.04585 13.589 2.66268 12.9722L11.3409 4.29391C12.5746 3.06025 14.7262 3.06025 15.9599 4.29391L17.5629 5.89698L4.26575 19.1942L2.66268 17.5911C2.04585 16.9743 1.7063 16.1536 1.7063 15.2816ZM8.5315 33.9563C8.5315 32.5946 9.06216 31.3149 10.0245 30.3525L12.694 27.683C12.9875 27.3878 13.38 27.2257 13.7971 27.2257C14.6571 27.2257 15.3567 27.9253 15.3567 28.7853C15.3567 29.2016 15.1946 29.5932 14.9003 29.8876L11.5909 33.1978L13.5045 35.1114C14.1486 35.7555 14.5036 36.613 14.5036 37.5241V39.1699H16.2099V37.5241C16.2099 36.1565 15.6775 34.8717 14.7109 33.9042L14.0036 33.1978L14.9301 32.2713L22.0787 39.4198C23.0171 40.3591 24.2661 40.8762 25.5945 40.8762C26.8674 40.8762 28.0635 40.3967 28.9883 39.5307C28.9397 40.6637 28.5285 41.731 27.7845 42.5825H13.2537L9.38721 36.7827C8.82754 35.9424 8.5315 34.9655 8.5315 33.9563ZM27.3008 44.2888V46.8704C26.5859 46.3286 25.7054 45.9951 24.7414 45.9951H16.2099C15.2458 45.9951 14.3653 46.3286 13.6504 46.8704V44.2888H27.3008ZM27.3008 51.114H13.6504V50.2608C13.6504 48.8497 14.7987 47.7014 16.2099 47.7014H24.7414C26.1525 47.7014 27.3008 48.8497 27.3008 50.2608V51.114ZM36.5814 29.5361L27.904 38.2135C26.6703 39.4471 24.5187 39.4471 23.285 38.2135L21.682 36.6104L33.057 25.2353C33.4119 25.4111 33.8069 25.5194 34.2292 25.5194C34.9408 25.5194 35.6096 25.2422 36.1121 24.7397L36.2589 24.5929L36.5822 24.9163C37.199 25.5331 37.5386 26.3538 37.5386 27.2257C37.5386 28.0977 37.199 28.9184 36.5814 29.5361Z" fill="#F18B70"/>
<path d="M20.1668 22.0788C19.4732 21.9517 18.9246 21.4031 18.7975 20.7095C19.3247 20.085 19.6225 19.2805 19.6225 18.4606C19.6225 17.9239 19.4954 17.3865 19.2317 16.8584C18.7454 15.8858 17.7686 15.2817 16.6817 15.2817C16.2414 15.2817 15.8004 15.3858 15.4054 15.5838L15.227 15.6733C14.2545 16.1588 13.6504 17.1356 13.6504 18.2225V18.6943C13.6504 23.3986 17.4777 27.2258 22.1819 27.2258H22.7322C23.7739 27.2258 24.7166 26.609 25.1338 25.6552L25.3744 25.1041C25.5203 24.7713 25.5945 24.4173 25.5945 24.053C25.5945 23.0539 25.0391 22.1556 24.1459 21.7085L23.9701 21.6206C22.7552 21.0149 21.1999 21.2069 20.1668 22.0788ZM23.2074 23.1469L23.3823 23.2348C23.6946 23.3901 23.8882 23.704 23.8882 24.053C23.8882 24.1801 23.8626 24.3029 23.8114 24.4198L23.5709 24.971C23.425 25.3045 23.0956 25.5195 22.7322 25.5195H22.1819C18.4187 25.5195 15.3567 22.4576 15.3567 18.6943V18.2225C15.3567 17.7857 15.599 17.3941 15.9906 17.1979L16.1689 17.1083C16.3268 17.029 16.5042 16.9872 16.6808 16.9872C17.1176 16.9872 17.5092 17.2295 17.7285 17.6671C17.8513 17.9129 17.9162 18.1876 17.9162 18.4606C17.9162 18.9264 17.7268 19.3837 17.3975 19.713L17.063 20.0474V20.4006C17.063 22.2827 18.5936 23.8132 20.4756 23.8132H20.8288L21.1633 23.4788C21.6862 22.9558 22.5454 22.8159 23.2074 23.1469Z" fill="#F18B70"/>
<path d="M4.26575 16.1349C4.73693 16.1349 5.1189 15.7529 5.1189 15.2817C5.1189 14.8106 4.73693 14.4286 4.26575 14.4286C3.79457 14.4286 3.4126 14.8106 3.4126 15.2817C3.4126 15.7529 3.79457 16.1349 4.26575 16.1349Z" fill="#F18B70"/>
<path d="M6.21951 12.1189L10.4846 7.85383L11.6909 9.06019L7.42587 13.3253L6.21951 12.1189Z" fill="#F18B70"/>
<path d="M26.6911 34.3007L32.662 28.3298L33.8683 29.5362L27.8975 35.507L26.6911 34.3007Z" fill="#F18B70"/>
<path d="M31.8117 9.91577L33.0181 8.70942L38.9889 14.6803L37.7826 15.8866L31.8117 9.91577Z" fill="#F18B70"/>
<path d="M32.6654 5.65125L33.8718 4.44489L43.2548 13.8279L42.0485 15.0343L32.6654 5.65125Z" fill="#F18B70"/>
<path d="M33.5184 1.38635L34.7248 0.179998L47.52 12.9752L46.3136 14.1816L33.5184 1.38635Z" fill="#F18B70"/>
</svg>
