<svg xmlns="http://www.w3.org/2000/svg" viewBox="-15 16 32.6 32.6"><path d="M13.2 32.5h-1.7c0-5.4-4.4-9.9-9.9-9.9v-1.7c6.4 0 11.6 5.2 11.6 11.6zM1.6 23.8v1.7c3.9 0 7 3.1 7 7h1.7c0-4.8-3.9-8.7-8.7-8.7zM1.3 16c-9 0-16.3 7.3-16.3 16.3s7.3 16.3 16.3 16.3c.6 0 1-.5 1-1 0-.6-.5-1-1-1-7.9 0-14.3-6.4-14.3-14.3S-6.6 18 1.3 18s14.3 6.4 14.3 14.3c0 3.3-1.8 6.6-4.3 8-.9.5-1.9.8-3 .8.6-.4 1.2-.9 1.6-1.5.1-.1.2-.2.2-.4.3-.8.4-1.7.6-2.5.2-1.1-4.7-3.1-5.1-1.8-.2.5-.4 2-.7 2.5-.3.4-1 .2-1.4-.2-1.1-1-2.4-2.4-3.5-3.5l-.1-.1-.1-.1c-1.1-1.1-2.5-2.3-3.5-3.5-.4-.4-.5-1.1-.2-1.4.4-.3 2-.5 2.5-.7 1.3-.4-.7-5.3-1.8-5.1-.8.2-1.7.2-2.5.6l-.2.2c-2.8 1.8-3.2 6.1-.4 9.3 1 1.2 2.1 2.4 3.2 3.6l.1.1.1.1c1.2 1.1 2.5 2.8 4.8 4.3 4.7 3.1 8.3 2.3 10.4 1.1 3.7-2 5.3-6.3 5.3-9.7 0-9.1-7.3-16.4-16.3-16.4z"/></svg>