<svg xmlns="http://www.w3.org/2000/svg" viewBox="0 0 1212.342 222.507"><path d="M38.748 84.541l26.125 89.531 23.777-83.22c2.543-8.708 4.426-14.652 5.651-17.833 1.222-3.178 3.522-6.212 6.898-9.1 3.375-2.885 7.999-4.33 13.87-4.33 5.967 0 10.641 1.445 14.017 4.33 3.376 2.887 5.747 6.018 7.119 9.394 1.369 3.375 3.277 9.224 5.724 17.539l23.777 83.22 26.419-89.531c1.761-6.458 3.178-11.129 4.256-14.017 1.076-2.885 2.885-5.43 5.431-7.632 2.543-2.202 6.212-3.303 11.008-3.303 4.793 0 8.953 1.665 12.476 4.99 3.522 3.328 5.284 7.243 5.284 11.742 0 4.109-1.518 10.324-4.55 18.64L193.3 190.95c-2.839 8.123-5.041 13.994-6.604 17.613-1.566 3.621-4.036 6.85-7.412 9.687-3.376 2.836-7.999 4.256-13.87 4.256-6.068 0-10.838-1.518-14.31-4.55-3.475-3.032-6.043-6.751-7.706-11.154-1.665-4.403-3.475-10.127-5.431-17.173l-22.896-78.083-22.164 78.084c-2.936 10.861-6.117 19.058-9.541 24.584-3.426 5.527-9.444 8.293-18.053 8.293-4.403 0-8.146-.858-11.228-2.569-3.082-1.71-5.65-4.158-7.706-7.338-2.055-3.179-3.866-6.946-5.431-11.302a932.96 932.96 0 0 1-3.669-10.347L4.843 94.962C1.614 85.96 0 79.748 0 76.322c0-4.305 1.711-8.169 5.137-11.595 3.424-3.424 7.632-5.137 12.623-5.137 6.653 0 11.155 1.885 13.503 5.651 2.348 3.767 4.843 10.2 7.485 19.3zM366.051 150.882h-78.376c.096 9.1 1.931 17.124 5.504 24.07 3.571 6.949 8.315 12.182 14.237 15.705 5.919 3.522 12.451 5.284 19.594 5.284 4.793 0 9.173-.562 13.136-1.688 3.963-1.124 7.802-2.885 11.521-5.284 3.718-2.396 7.142-4.965 10.274-7.706 3.13-2.738 7.192-6.458 12.182-11.155 2.055-1.761 4.99-2.642 8.806-2.642 4.11 0 7.435 1.126 9.98 3.376 2.543 2.252 3.816 5.431 3.816 9.54 0 3.621-1.42 7.853-4.257 12.696-2.839 4.844-7.118 9.492-12.842 13.943-5.724 4.454-12.916 8.146-21.576 11.082s-18.617 4.403-29.868 4.403c-25.736 0-45.745-7.339-60.03-22.016-14.287-14.677-21.429-34.588-21.429-59.736 0-11.838 1.761-22.823 5.284-32.951 3.523-10.127 8.66-18.81 15.411-26.052 6.752-7.24 15.067-12.792 24.952-16.659 9.882-3.864 20.842-5.798 32.877-5.798 15.654 0 29.084 3.302 40.289 9.907 11.203 6.605 19.594 15.143 25.171 25.612 5.578 10.471 8.366 21.135 8.366 31.997 0 10.079-2.887 16.61-8.66 19.594-5.772 2.988-13.893 4.478-24.362 4.478zm-78.377-22.75h72.652c-.979-13.698-4.674-23.947-11.081-30.749-6.41-6.799-14.85-10.201-25.318-10.201-9.98 0-18.177 3.449-24.584 10.348-6.41 6.899-10.3 17.099-11.669 30.602zM465.856 22.896V84.1c7.534-7.827 15.214-13.819 23.043-17.979 7.827-4.158 17.514-6.238 29.061-6.238 13.306 0 24.974 3.155 35.005 9.467 10.029 6.311 17.808 15.461 23.337 27.446 5.527 11.987 8.293 26.199 8.293 42.638 0 12.134-1.541 23.263-4.624 33.391-3.082 10.127-7.559 18.911-13.43 26.346-5.871 7.437-12.989 13.187-21.355 17.246-8.366 4.059-17.59 6.091-27.667 6.091-6.165 0-11.962-.734-17.393-2.202s-10.054-3.399-13.87-5.797c-3.816-2.396-7.07-4.867-9.76-7.412-2.692-2.543-6.238-6.359-10.641-11.448v3.963c0 7.536-1.812 13.234-5.431 17.099-3.621 3.864-8.219 5.798-13.796 5.798-5.676 0-10.201-1.934-13.577-5.798s-5.063-9.563-5.063-17.099V24.658c0-8.121 1.637-14.26 4.917-18.42C436.183 2.08 440.758 0 446.629 0c6.165 0 10.909 1.981 14.237 5.944 3.325 3.963 4.99 9.614 4.99 16.952zm1.909 119.033c0 15.95 3.644 28.206 10.935 36.767 7.288 8.563 16.854 12.842 28.694 12.842 10.077 0 18.762-4.378 26.052-13.136 7.288-8.756 10.935-21.305 10.935-37.647 0-10.568-1.518-19.667-4.55-27.3-3.034-7.632-7.339-13.526-12.916-17.686-5.578-4.158-12.086-6.238-19.521-6.238-7.632 0-14.434 2.08-20.401 6.238-5.969 4.16-10.666 10.178-14.09 18.053-3.428 7.878-5.138 17.246-5.138 28.107z"/><path d="M653.139 81.752v4.843c7.045-9.295 14.75-16.12 23.117-20.475 8.366-4.353 17.979-6.532 28.841-6.532 10.567 0 20.009 2.3 28.327 6.898 8.315 4.601 14.53 11.106 18.64 19.521 2.642 4.894 4.353 10.178 5.137 15.851.782 5.676 1.174 12.916 1.174 21.723v74.561c0 8.024-1.834 14.09-5.504 18.2-3.669 4.109-8.439 6.165-14.311 6.165-5.969 0-10.813-2.105-14.53-6.312-3.72-4.206-5.578-10.224-5.578-18.053V131.36c0-13.209-1.834-23.312-5.504-30.309-3.669-6.995-10.985-10.494-21.942-10.494-7.144 0-13.65 2.128-19.521 6.385-5.871 4.256-10.178 10.104-12.916 17.539-1.958 5.97-2.936 17.125-2.936 33.464v50.196c0 8.123-1.885 14.214-5.651 18.273-3.768 4.059-8.637 6.091-14.604 6.091-5.774 0-10.52-2.105-14.237-6.312-3.72-4.206-5.577-10.224-5.577-18.053V82.339c0-7.632 1.663-13.331 4.99-17.099 3.325-3.766 7.875-5.651 13.65-5.651 3.522 0 6.701.833 9.54 2.495 2.837 1.665 5.112 4.16 6.825 7.486 1.712 3.327 2.57 7.389 2.57 12.182zM910.138 150.882h-78.377c.097 9.1 1.931 17.124 5.504 24.07 3.57 6.949 8.315 12.182 14.237 15.705 5.919 3.522 12.45 5.284 19.594 5.284 4.793 0 9.174-.562 13.136-1.688 3.963-1.124 7.803-2.885 11.522-5.284 3.717-2.396 7.141-4.965 10.273-7.706 3.131-2.738 7.192-6.458 12.183-11.155 2.055-1.761 4.99-2.642 8.807-2.642 4.109 0 7.435 1.126 9.98 3.376 2.543 2.252 3.815 5.431 3.815 9.54 0 3.621-1.419 7.853-4.256 12.696-2.84 4.844-7.119 9.492-12.843 13.943-5.725 4.454-12.916 8.146-21.575 11.082-8.66 2.936-18.618 4.403-29.869 4.403-25.735 0-45.744-7.339-60.029-22.016-14.288-14.677-21.429-34.588-21.429-59.736 0-11.838 1.761-22.823 5.284-32.951 3.522-10.127 8.66-18.81 15.411-26.052 6.752-7.24 15.067-12.792 24.951-16.659 9.882-3.864 20.842-5.798 32.878-5.798 15.653 0 29.083 3.302 40.289 9.907 11.202 6.605 19.594 15.143 25.171 25.612 5.577 10.471 8.366 21.135 8.366 31.997 0 10.079-2.888 16.61-8.659 19.594-5.775 2.988-13.896 4.478-24.364 4.478zm-78.377-22.75h72.652c-.979-13.698-4.674-23.947-11.081-30.749-6.41-6.799-14.85-10.201-25.318-10.201-9.98 0-18.177 3.449-24.585 10.348-6.409 6.899-10.299 17.099-11.668 30.602zM979.12 63.112h4.403v-24.07c0-6.458.17-11.522.514-15.191.342-3.669 1.296-6.825 2.862-9.467 1.563-2.738 3.815-4.965 6.751-6.678 2.936-1.711 6.213-2.569 9.834-2.569 5.087 0 9.688 1.908 13.797 5.724 2.738 2.546 4.477 5.651 5.21 9.32.734 3.669 1.102 8.88 1.102 15.631v27.3h14.677c5.674 0 10.004 1.346 12.989 4.036 2.983 2.692 4.477 6.142 4.477 10.347 0 5.383-2.128 9.15-6.385 11.302-4.256 2.153-10.347 3.229-18.272 3.229h-7.485v73.68c0 6.263.22 11.082.66 14.457.44 3.376 1.614 6.117 3.522 8.219 1.908 2.105 5.013 3.156 9.32 3.156 2.348 0 5.526-.415 9.54-1.248 4.011-.83 7.142-1.248 9.394-1.248 3.229 0 6.139 1.298 8.732 3.89 2.592 2.594 3.89 5.797 3.89 9.613 0 6.458-3.522 11.4-10.567 14.824s-17.173 5.137-30.382 5.137c-12.526 0-22.017-2.105-28.475-6.312-6.457-4.206-10.691-10.028-12.695-17.466-2.007-7.435-3.009-17.367-3.009-29.795V92.026h-5.284c-5.774 0-10.178-1.369-13.209-4.11-3.034-2.738-4.55-6.212-4.55-10.421 0-4.206 1.589-7.655 4.77-10.347 3.178-2.69 7.801-4.036 13.869-4.036zM1212.342 170.109c0 11.059-2.692 20.525-8.072 28.4-5.383 7.877-13.333 13.847-23.851 17.906-10.52 4.059-23.314 6.091-38.381 6.091-14.384 0-26.713-2.202-36.987-6.605-10.273-4.403-17.857-9.907-22.749-16.512-4.895-6.605-7.339-13.232-7.339-19.888 0-4.403 1.563-8.169 4.696-11.302 3.131-3.13 7.094-4.697 11.889-4.697 4.206 0 7.436 1.028 9.688 3.083 2.249 2.055 4.402 4.942 6.458 8.66 4.109 7.144 9.026 12.476 14.75 15.998 5.725 3.522 13.526 5.284 23.41 5.284 8.022 0 14.604-1.784 19.741-5.357 5.137-3.571 7.706-7.655 7.706-12.256 0-7.045-2.668-12.182-7.999-15.411-5.335-3.229-14.116-6.311-26.346-9.247-13.797-3.424-25.025-7.02-33.685-10.788-8.66-3.766-15.583-8.733-20.769-14.897-5.188-6.165-7.779-13.746-7.779-22.75 0-8.022 2.396-15.606 7.192-22.75 4.793-7.142 11.863-12.843 21.208-17.099 9.344-4.256 20.622-6.385 33.832-6.385 10.37 0 19.69 1.078 27.96 3.229 8.268 2.154 15.165 5.041 20.694 8.66 5.527 3.621 9.735 7.632 12.623 12.036 2.885 4.403 4.329 8.71 4.329 12.916 0 4.6-1.541 8.366-4.623 11.301s-7.462 4.403-13.136 4.403c-4.11 0-7.609-1.174-10.494-3.522-2.888-2.349-6.19-5.871-9.907-10.568-3.034-3.913-6.605-7.045-10.715-9.394-4.109-2.348-9.687-3.522-16.731-3.522-7.243 0-13.261 1.541-18.054 4.624-4.795 3.082-7.191 6.923-7.191 11.521 0 4.208 1.761 7.657 5.283 10.348 3.522 2.692 8.268 4.917 14.237 6.678 5.967 1.761 14.187 3.915 24.658 6.458 12.425 3.034 22.577 6.655 30.455 10.861 7.875 4.208 13.845 9.173 17.906 14.897 4.061 5.726 6.093 12.258 6.093 19.596z"/></svg>