<svg xmlns="http://www.w3.org/2000/svg" fill="none" viewBox="0 0 18 18">
  <path fill="#fff" d="M12.71 12.527a2.025 2.025 0 0 0-.555-1.824l-4.86-4.859a2.024 2.024 0 0 0-3.301.647l-3.86 9.17a1.676 1.676 0 0 0 .36 1.843 1.678 1.678 0 0 0 1.844.361l9.171-3.86a2.023 2.023 0 0 0 1.202-1.479ZM1.756 16.482a.17.17 0 0 1-.2-.039.17.17 0 0 1-.04-.202l2.605-6.185 3.822 3.821-6.186 2.605Zm9.484-4.244a.522.522 0 0 1-.313.384l-1.492.627-4.686-4.685.629-1.492a.52.52 0 0 1 .487-.322.51.51 0 0 1 .37.154l4.86 4.859c.18.18.16.392.145.475ZM10.292.283A.748.748 0 0 1 11.339.16c.062.05 1.537 1.238 1.408 3.262-.05.793-.354 1.56-.901 2.28a.749.749 0 1 1-1.195-.905c.366-.482.567-.977.599-1.47.078-1.223-.809-1.96-.847-1.991a.753.753 0 0 1-.112-1.053Zm7.39 10.08a.749.749 0 0 1-1.04-.173c-.022-.029-.345-.44-.892-.44-.257 0-.485.073-.677.218a.75.75 0 1 1-.904-1.196 2.601 2.601 0 0 1 1.58-.521c1.075 0 1.834.671 2.114 1.068a.75.75 0 0 1-.181 1.045v-.001ZM15.75 1.125a1.125 1.125 0 1 1 2.25 0 1.125 1.125 0 0 1-2.25 0Zm-1.5 3.75a1.125 1.125 0 1 1 2.25 0 1.125 1.125 0 0 1-2.25 0Zm-8.251-3a1.125 1.125 0 1 1 2.25 0 1.125 1.125 0 0 1-2.25 0Zm11.25 12a1.125 1.125 0 1 1-2.25 0 1.125 1.125 0 0 1 2.25 0ZM.75 2.625a1.125 1.125 0 1 1 2.25 0 1.125 1.125 0 0 1-2.25 0Zm12.75 14.25a1.125 1.125 0 1 1-2.251-.001 1.125 1.125 0 0 1 2.251.001Z"/>
</svg>
