<svg xmlns="http://www.w3.org/2000/svg" fill="none" viewBox="0 0 20 23">
  <path fill="#fff" d="m17.95 5.305-3.485-3.34C13.143.698 11.385 0 9.515 0H5C2.243-.001 0 2.149 0 4.79v13.418C0 20.85 2.243 23 5 23h10c2.757 0 5-2.15 5-4.792v-8.16c0-1.793-.728-3.475-2.05-4.743ZM16.536 6.66c.318.304.587.643.805 1.006H13c-.551 0-1-.43-1-.958v-4.16c.379.208.733.466 1.05.77l3.485 3.34.001.002ZM18 18.208c0 1.585-1.346 2.875-3 2.875H5c-1.654 0-3-1.29-3-2.875V4.791c0-1.585 1.346-2.875 3-2.875h4.515c.163 0 .325.007.485.022v4.77c0 1.585 1.346 2.875 3 2.875h4.977c.015.153.023.308.023.465v8.16Zm-4.5-5.75h-7c-1.378 0-2.5 1.075-2.5 2.396v1.917c0 1.32 1.122 2.395 2.5 2.395h7c1.378 0 2.5-1.075 2.5-2.395v-1.917c0-1.32-1.122-2.396-2.5-2.396Zm.5 4.313a.49.49 0 0 1-.5.479h-7a.49.49 0 0 1-.5-.48v-1.916a.49.49 0 0 1 .5-.48h7c.276 0 .5.215.5.48v1.917ZM4 9.583c0-.53.448-.959 1-.959h2c.552 0 1 .43 1 .959 0 .529-.448.958-1 .958H5c-.552 0-1-.43-1-.958Zm0-3.834c0-.529.448-.958 1-.958h2c.552 0 1 .43 1 .958 0 .53-.448.959-1 .959H5c-.552 0-1-.43-1-.959Z"/>
</svg>
