<svg xmlns="http://www.w3.org/2000/svg" fill="none" viewBox="0 0 21 21">
  <path fill="#fff" d="M10.302.15C9.826.153 9.35.187 8.88.254a.708.708 0 0 0-.596.79.709.709 0 0 0 .698.596.317.317 0 0 0 .093-.01 8.976 8.976 0 0 1 1.228-.083.698.698 0 0 0 0-1.395ZM6.944 1.445a.706.706 0 0 0-.93-.335c-.6.288-1.17.634-1.703 1.033a.698.698 0 0 0-.14.976.675.675 0 0 0 .559.28.728.728 0 0 0 .419-.14c.457-.346.95-.642 1.47-.884a.7.7 0 0 0 .325-.93ZM3.186 4.123a.691.691 0 0 0-.977.149c-.39.54-.726 1.116-1.005 1.72a.704.704 0 0 0 .633.996.693.693 0 0 0 .633-.41c.24-.524.533-1.022.874-1.488a.69.69 0 0 0-.158-.967Zm-1.414 4.92a.699.699 0 1 0-1.386-.176 9.915 9.915 0 0 0-.056 2 .69.69 0 0 0 .688.642h.056a.697.697 0 0 0 .642-.744 8.851 8.851 0 0 1 .056-1.72Zm1.293 5.759a8.145 8.145 0 0 1-.782-1.526.698.698 0 1 0-1.302.503c.242.622.548 1.217.912 1.777a.686.686 0 0 0 .958.214.705.705 0 0 0 .214-.968Zm3.116 2.902a9.35 9.35 0 0 1-1.423-.967.693.693 0 0 0-.893 1.06c.51.432 1.061.812 1.646 1.135a.695.695 0 0 0 .94-.279.698.698 0 0 0-.27-.949Zm4.121 1.052a8.759 8.759 0 0 1-1.712-.168.697.697 0 1 0-.27 1.367c.653.131 1.317.197 1.982.196a.698.698 0 0 0 0-1.395Z"/>
  <path fill="#fff" d="M10.302 20.15a.697.697 0 1 1 0-1.394 8.605 8.605 0 1 0 0-17.21.698.698 0 1 1 0-1.395 10 10 0 0 1 0 20Z"/>
  <path fill="#fff" d="M10.302 2.71a7.442 7.442 0 1 0 0 14.883 7.442 7.442 0 0 0 0-14.884Zm2.484 8.688a.701.701 0 0 1-.94.307l-1.86-.93a.707.707 0 0 1-.382-.624v-3.72a.698.698 0 1 1 1.396 0v3.292l1.479.735a.693.693 0 0 1 .307.94Z"/>
</svg>
