<svg xmlns="http://www.w3.org/2000/svg" fill="none" viewBox="0 0 20 20">
  <path fill="#fff" d="M10 0C4.486 0 0 4.486 0 10s4.486 10 10 10 10-4.486 10-10S15.514 0 10 0Zm0 18.333c-4.595 0-8.333-3.738-8.333-8.333 0-1.245.275-2.427.766-3.49l1.389 1.46c.22.232.526.363.846.363h1.625c.24 0 .47.095.64.265l.31.311a.878.878 0 0 1 .258.621v.803c0 .32.127.627.354.854l.992.991c.206.206.321.485.321.776v1.971c0 .502.407.908.909.908h.177a.907.907 0 0 0 .824-.527l1.868-4.047a1.053 1.053 0 0 0-.398-1.334l-2.135-1.334a1.692 1.692 0 0 0-.897-.258H8.323a.979.979 0 0 1-.691-.286l-.494-.494a.664.664 0 0 1 0-.94l.441-.44a.664.664 0 0 1 .768-.125l.733.367c.3.15.665.092.903-.147l.003-.002a.782.782 0 0 0 .117-.956l-.697-1.163a.738.738 0 0 1 .011-.784c.247-.38.65-1.001 1.097-1.68a8.34 8.34 0 0 1 6.501 3.822l-1.325.764c-.408.235-.61.713-.496 1.17l.523 2.088c.075.3.277.552.554.69l1.977.981c-.582 4.03-4.059 7.135-8.246 7.135H10Z"/>
</svg>
