<svg viewBox="0 0 26 26" width="26px" height="26px"><path d="m6.5 0c-0.51285 0-0.92773 0.41488-0.92773 0.92773v5.5723h-4.6445c-0.51285 0-0.92773 0.41493-0.92773 0.92773v12.072c0 0.51285 0.41488 0.92773 0.92773 0.92773h4.6445v4.6445c0 0.51285 0.41488 0.92773 0.92773 0.92773h13c0.51285 0 0.92773-0.41488 0.92773-0.92773v-4.6445h4.6445c0.51285 0 0.92773-0.41488 0.92773-0.92773v-12.072c0-0.5128-0.41488-0.92773-0.92773-0.92773h-4.6445v-5.5723c0-0.51285-0.41488-0.92773-0.92773-0.92773zm0.92773 1.8574h11.145v4.6426h-11.145zm-5.5703 6.5h22.285v10.215h-3.7148v-2.7871h0.92969c0.51285 0 0.92773-0.41488 0.92773-0.92773s-0.41488-0.92969-0.92773-0.92969h-16.715c-0.51285 0-0.92773 0.41683-0.92773 0.92969s0.41488 0.92773 0.92773 0.92773h0.92969v2.7871h-3.7148v-10.215zm19.5 1.8574c-0.51285 0-0.92969 0.41488-0.92969 0.92773s0.41683 0.92969 0.92969 0.92969h0.92773c0.51285 0 0.92969-0.41683 0.92969-0.92969s-0.41683-0.92773-0.92969-0.92773zm-13.93 5.5703h11.145v8.3574h-11.145zm2.7871 1.8574c-0.51285 0-0.92969 0.41683-0.92969 0.92969 0 0.51285 0.41683 0.92773 0.92969 0.92773h5.5703c0.51285 0 0.92969-0.41488 0.92969-0.92773s-0.41683-0.92969-0.92969-0.92969zm0 2.7852c-0.51285 0-0.92969 0.41683-0.92969 0.92969 0 0.51285 0.41683 0.92773 0.92969 0.92773h5.5703c0.51285 0 0.92969-0.41488 0.92969-0.92773s-0.41683-0.92969-0.92969-0.92969z"/></svg>